<?xml version="1.0" encoding="utf-8"?>
<!-- Generator: Adobe Illustrator 19.2.0, SVG Export Plug-In . SVG Version: 6.00 Build 0)  -->
<svg version="1.1" id="Layer_1" xmlns="http://www.w3.org/2000/svg" xmlns:xlink="http://www.w3.org/1999/xlink" x="0px" y="0px"
	 viewBox="0 0 600 600" style="enable-background:new 0 0 600 600;" xml:space="preserve">
<style type="text/css">
	.st0{fill:#C2B59B;}
	.st1{opacity:0.95;enable-background:new    ;}
	.st2{fill:#FFFFFF;}
	.st3{opacity:0.1;}
	.st4{fill:#010101;}
</style>
<rect x="-757" y="103" class="st0" width="601" height="601"/>
<g>
	<rect x="57.4" y="28.3" class="st1" width="485.2" height="470.9"/>
	<g>
		
			<image style="overflow:visible;opacity:0.4;enable-background:new    ;" width="2375" height="2325" xlink:href="EBB441B7.png"  transform="matrix(0.2396 0 0 0.2396 15.5078 -7.4801)">
		</image>
		<g>
			<g>
				<path class="st2" d="M37,6.9v513.9h526V6.9H37z M521.2,480H79.9V48.7h441.2L521.2,480L521.2,480z"/>
			</g>
		</g>
	</g>
	<g>
		<g class="st3">
			<path class="st4" d="M228.1,312.9l-18.7,61.6h-41l69.7-217.4h50.6l70.6,217.4h-42.6L297,312.9H228.1z M290.4,282.9l-17.1-53.5
				c-4.2-13.2-7.7-28.1-11-40.6h-0.6c-3.2,12.6-6.5,27.7-10.3,40.6l-16.8,53.5H290.4z"/>
		</g>
		<g>
			<path class="st2" d="M228.1,305.7l-18.7,61.6h-41l69.7-217.4h50.6l70.6,217.4h-42.6L297,305.7H228.1z M290.4,275.7l-17.1-53.5
				c-4.2-13.2-7.7-28.1-11-40.6h-0.6c-3.2,12.6-6.5,27.7-10.3,40.6l-16.8,53.5H290.4z"/>
		</g>
	</g>
	<g>
		<g class="st3">
			<path class="st4" d="M417.1,173.6c0,11.9-8.7,21.3-22.6,21.3c-13.2,0-21.9-9.4-21.9-21.3c0-12.3,9-21.6,22.3-21.6
				C408.4,152,416.8,161.3,417.1,173.6z M374.9,374.5V217.4h40v157.1H374.9z"/>
		</g>
		<g>
			<path class="st2" d="M417.1,166.4c0,11.9-8.7,21.3-22.6,21.3c-13.2,0-21.9-9.4-21.9-21.3c0-12.3,9-21.6,22.3-21.6
				C408.4,144.8,416.8,154.1,417.1,166.4z M374.9,367.4V210.3h40v157.1L374.9,367.4L374.9,367.4z"/>
		</g>
	</g>
	<g>
		<path class="st2" d="M45.8,544.9v47.5h-8.7v-47.5H45.8z"/>
		<path class="st2" d="M55.8,542.3h8.7v50h-8.7V542.3z"/>
		<path class="st2" d="M73.9,542.3h8.7v50h-8.7V542.3z"/>
		<path class="st2" d="M122.7,582.1c0,4.1,0.1,7.5,0.3,10.3h-7.5l-0.4-5.1h-0.2c-1.5,2.4-4.9,5.9-11.1,5.9s-11.9-3.7-11.9-14.9
			v-20.1h8.7v18.7c0,5.7,1.8,9.4,6.4,9.4c3.5,0,5.8-2.4,6.6-4.6c0.3-0.7,0.5-1.7,0.5-2.7v-20.7h8.7L122.7,582.1L122.7,582.1z"/>
		<path class="st2" d="M131.7,584.3c1.9,1.2,5.6,2.5,8.7,2.5c3.8,0,5.5-1.6,5.5-3.9c0-2.3-1.4-3.5-5.6-5c-6.7-2.3-9.4-5.9-9.4-10
			c0-6.1,5-10.7,13-10.7c3.8,0,7.1,0.9,9.2,2l-1.8,6.1c-1.4-0.8-4.2-2-7.3-2s-4.8,1.5-4.8,3.7s1.6,3.2,6,4.8
			c6.3,2.2,9.1,5.3,9.2,10.4c0,6.3-4.9,10.8-13.9,10.8c-4.2,0-7.9-1-10.4-2.4L131.7,584.3z"/>
		<path class="st2" d="M171.4,549.3v8.8h8.2v6.5h-8.2v15.1c0,4.2,1.1,6.3,4.4,6.3c1.5,0,2.4-0.1,3.4-0.4l0.1,6.6
			c-1.3,0.5-3.6,0.9-6.3,0.9c-3.2,0-5.8-1.1-7.5-2.8c-1.9-2-2.7-5.1-2.7-9.7v-16.1H158V558h4.9v-6.4L171.4,549.3z"/>
		<path class="st2" d="M186.2,569.1c0-4.7-0.1-8-0.3-11.1h7.5l0.4,6.5h0.2c1.7-4.8,5.7-7.3,9.4-7.3c0.8,0,1.3,0.1,2,0.2v8.1
			c-0.8-0.1-1.5-0.2-2.6-0.2c-4.1,0-7,2.6-7.7,6.5c-0.1,0.8-0.2,1.7-0.2,2.6v17.8h-8.7L186.2,569.1L186.2,569.1z"/>
		<path class="st2" d="M237.2,584.1c0,3.1,0.1,6.1,0.6,8.2H230l-0.6-3.8h-0.2c-2,2.7-5.6,4.6-10.1,4.6c-6.9,0-10.8-5-10.8-10.2
			c0-8.6,7.7-13,20.4-13v-0.6c0-2.3-0.9-6-7-6c-3.4,0-6.9,1.1-9.2,2.5l-1.7-5.6c2.5-1.5,7-3,12.4-3c11,0,14.2,7,14.2,14.5v12.4
			H237.2z M228.8,575.6c-6.1-0.1-12,1.2-12,6.4c0,3.4,2.2,4.9,4.9,4.9c3.5,0,6-2.3,6.8-4.7c0.2-0.6,0.2-1.3,0.2-1.9v-4.7H228.8z"/>
		<path class="st2" d="M255.9,549.3v8.8h8.2v6.5h-8.2v15.1c0,4.2,1.1,6.3,4.4,6.3c1.6,0,2.4-0.1,3.4-0.4l0.1,6.6
			c-1.3,0.5-3.6,0.9-6.3,0.9c-3.2,0-5.8-1.1-7.5-2.8c-1.9-2-2.7-5.1-2.7-9.7v-16.1h-4.9V558h4.9v-6.4L255.9,549.3z"/>
		<path class="st2" d="M302.9,574.9c0,12.6-8.9,18.2-17.6,18.2c-9.6,0-17.2-6.6-17.2-17.7c0-11.3,7.4-18.2,17.8-18.2
			C296,557.3,302.9,564.5,302.9,574.9z M277,575.2c0,6.6,3.3,11.6,8.5,11.6c4.9,0,8.4-4.8,8.4-11.8c0-5.4-2.4-11.6-8.3-11.6
			C279.5,563.5,277,569.5,277,575.2z"/>
		<path class="st2" d="M310,569.1c0-4.7-0.1-8-0.3-11.1h7.5l0.3,6.5h0.2c1.7-4.8,5.7-7.3,9.4-7.3c0.8,0,1.3,0.1,2,0.2v8.1
			c-0.8-0.1-1.5-0.2-2.6-0.2c-4.1,0-7,2.6-7.7,6.5c-0.1,0.8-0.2,1.7-0.2,2.6v17.8H310V569.1z"/>
	</g>
</g>
</svg>
