<?xml version="1.0" encoding="utf-8"?>
<!-- Generator: Adobe Illustrator 19.2.0, SVG Export Plug-In . SVG Version: 6.00 Build 0)  -->
<svg version="1.1" id="Layer_1" xmlns="http://www.w3.org/2000/svg" xmlns:xlink="http://www.w3.org/1999/xlink" x="0px" y="0px"
	 viewBox="0 0 600 600" style="enable-background:new 0 0 600 600;" xml:space="preserve">
<style type="text/css">
	.st0{fill:#C2B59B;}
	.st1{opacity:0.95;}
	.st2{fill:#FFFFFF;}
	.st3{opacity:0.1;}
	.st4{fill:#010101;}
</style>
<rect x="-671.2" y="-2.2" class="st0" width="601" height="601"/>
<g>
	<rect x="65.3" y="27.4" class="st1" width="474.7" height="460.7"/>
	<g>
		
			<image style="overflow:visible;opacity:0.4;" width="2320" height="2270" xlink:href="18349A11.png"  transform="matrix(0.24 0 0 0.24 21.6893 -7.6132)">
		</image>
		<g>
			<g>
				<path class="st2" d="M42.7,6.4v502.7h514.5V6.4H42.7z M516.4,469.3H84.7v-422h431.6V469.3z"/>
			</g>
		</g>
	</g>
	<g>
		<g class="st3">
			<path class="st4" d="M235.9,152.7v212.7h-38.8V152.7H235.9z"/>
		</g>
		<g>
			<g>
				<path class="st2" d="M235.9,145.7v212.7h-38.8V145.7H235.9z"/>
			</g>
		</g>
	</g>
	<g>
		<g class="st3">
			<path class="st4" d="M404.9,141.4v180.8c0,15.8,0.6,32.8,1.2,43.2h-31.8l-1.4-24.3h-0.6c-8.4,17-25.4,27.8-45.9,27.8
				c-33.5,0-60.1-31.2-60.1-78.6c-0.3-51.4,29.2-82,63-82c19.4,0,33.2,8.8,39.6,20.2h0.6v-87.1H404.9z M369.4,275.8
				c0-3.2-0.3-6.9-0.9-10.1c-3.2-15.1-14.4-27.5-30.6-27.5c-22.8,0-35.5,22.1-35.5,50.8c0,28.1,12.7,48.6,35.2,48.6
				c14.4,0,27.2-10.7,30.6-27.5c0.9-3.5,1.2-7.3,1.2-11.4V275.8z"/>
		</g>
		<g>
			<path class="st2" d="M404.9,134.4v180.8c0,15.8,0.6,32.8,1.2,43.2h-31.8l-1.4-24.3h-0.6c-8.4,17-25.4,27.8-45.9,27.8
				c-33.5,0-60.1-31.2-60.1-78.6c-0.3-51.4,29.2-82,63-82c19.4,0,33.2,8.8,39.6,20.2h0.6v-87.1H404.9z M369.4,268.8
				c0-3.2-0.3-6.9-0.9-10.1c-3.2-15.1-14.4-27.5-30.6-27.5c-22.8,0-35.5,22.1-35.5,50.8c0,28.1,12.7,48.6,35.2,48.6
				c14.4,0,27.2-10.7,30.6-27.5c0.9-3.5,1.2-7.3,1.2-11.4V268.8z"/>
		</g>
	</g>
	<g>
		<path class="st2" d="M54,532.7v46.4h-8.5v-46.4H54z"/>
		<path class="st2" d="M63.8,555.6c0-3.9-0.1-7.1-0.3-10h7.4l0.4,5h0.2c1.5-2.6,5.2-5.8,10.7-5.8c5.9,0,11.9,3.8,11.9,14.4v19.9
			h-8.5v-18.9c0-4.8-1.8-8.5-6.4-8.5c-3.4,0-5.7,2.4-6.6,5c-0.3,0.7-0.4,1.7-0.4,2.7v19.8h-8.5V555.6z"/>
		<path class="st2" d="M103.5,533.4c3.8-0.6,8.5-1,13.5-1c8.7,0,14.6,1.8,18.9,5.4c4.5,3.7,7.3,9.2,7.3,17.1
			c0,8.3-2.8,14.5-7.2,18.5c-4.6,4.2-12,6.3-21,6.3c-4.9,0-8.6-0.3-11.4-0.6V533.4z M112,572.8c1.2,0.2,3,0.2,4.7,0.2
			c11,0.1,17.6-6.1,17.6-17.8c0.1-10.2-5.9-16.1-16.5-16.1c-2.7,0-4.6,0.2-5.8,0.5V572.8z"/>
		<path class="st2" d="M156.2,564.8c0.2,6.1,4.9,8.7,10.3,8.7c3.9,0,6.7-0.6,9.3-1.5l1.2,5.8c-2.9,1.2-6.9,2.1-11.7,2.1
			c-10.9,0-17.3-6.7-17.3-17c0-9.3,5.7-18.1,16.4-18.1c10.9,0,14.5,9,14.5,16.3c0,1.6-0.1,2.8-0.3,3.6H156.2z M171,558.9
			c0.1-3.1-1.3-8.2-7-8.2c-5.2,0-7.4,4.8-7.8,8.2H171z"/>
		<path class="st2" d="M185.4,571.3c1.9,1.2,5.5,2.5,8.5,2.5c3.7,0,5.4-1.6,5.4-3.8c0-2.3-1.4-3.4-5.5-4.9c-6.6-2.2-9.2-5.8-9.2-9.8
			c0-5.9,4.9-10.5,12.7-10.5c3.7,0,7,0.9,9,2l-1.7,5.9c-1.4-0.8-4.1-1.9-7.1-1.9c-3,0-4.7,1.5-4.7,3.6c0,2.1,1.6,3.1,5.9,4.7
			c6.1,2.1,8.9,5.2,9,10.2c0,6.1-4.8,10.5-13.6,10.5c-4.1,0-7.7-1-10.2-2.3L185.4,571.3z"/>
		<path class="st2" d="M223.5,536.3c0,2.5-1.9,4.5-4.8,4.5c-2.8,0-4.7-2.1-4.7-4.5c0-2.6,1.9-4.6,4.8-4.6
			C221.7,531.6,223.5,533.6,223.5,536.3z M214.5,579.2v-33.6h8.5v33.6H214.5z"/>
		<path class="st2" d="M262.5,574.3c0,7-1.4,12.1-5,15.2c-3.4,3.1-8.3,4.1-13,4.1c-4.3,0-8.8-1-11.7-2.7l1.9-6.4
			c2.1,1.2,5.7,2.5,9.8,2.5c5.5,0,9.6-2.9,9.6-10.1V574H254c-1.9,3-5.3,5-9.8,5c-8.3,0-14.3-6.9-14.3-16.4c0-11,7.2-17.7,15.2-17.7
			c5.2,0,8.1,2.5,9.7,5.2h0.1l0.3-4.5h7.4c-0.1,2.3-0.3,5-0.3,9.6V574.3z M254,559.1c0-0.8-0.1-1.6-0.3-2.3
			c-0.9-3.1-3.3-5.4-6.9-5.4c-4.8,0-8.3,4.1-8.3,11c0,5.7,2.9,10.3,8.2,10.3c3.2,0,5.9-2.1,6.9-5.2c0.3-0.8,0.3-2,0.3-3V559.1z"/>
		<path class="st2" d="M271.3,555.6c0-3.9-0.1-7.1-0.3-10h7.4l0.4,5h0.2c1.5-2.6,5.2-5.8,10.8-5.8c5.9,0,11.9,3.8,11.9,14.4v19.9
			h-8.5v-18.9c0-4.8-1.8-8.5-6.4-8.5c-3.4,0-5.7,2.4-6.6,5c-0.3,0.7-0.4,1.7-0.4,2.7v19.8h-8.5V555.6z"/>
	</g>
</g>
</svg>
