<?xml version="1.0" encoding="utf-8"?>
<!-- Generator: Adobe Illustrator 19.2.0, SVG Export Plug-In . SVG Version: 6.00 Build 0)  -->
<svg version="1.1" id="Layer_1" xmlns="http://www.w3.org/2000/svg" xmlns:xlink="http://www.w3.org/1999/xlink" x="0px" y="0px"
	 viewBox="0 0 600 600" style="enable-background:new 0 0 600 600;" xml:space="preserve">
<style type="text/css">
	.st0{fill:#C2B59B;}
	.st1{opacity:0.95;}
	.st2{fill:#FFFFFF;}
	.st3{opacity:0.1;}
	.st4{fill:#010101;}
</style>
<rect x="-1056" y="77" class="st0" width="601" height="601"/>
<g>
	<rect x="65" y="29.8" class="st1" width="469.9" height="456.1"/>
	<g>
		
			<image style="overflow:visible;opacity:0.4;" width="2296" height="2248" xlink:href="41777049.png"  transform="matrix(0.24 0 0 0.24 24.4904 -3.3635)">
		</image>
		<g>
			<g>
				<path class="st2" d="M45.3,10.5v497.6h509.3V10.5H45.3z M513.6,468.2H86.4V50.5h427.3V468.2z"/>
			</g>
		</g>
	</g>
	<g>
		<g class="st3">
			<path class="st4" d="M178.7,156.7c13.7-2.5,32.8-4.4,58.7-4.4c28.1,0,48.7,5.9,62.2,17.2c12.5,10.3,20.6,26.9,20.6,46.5
				c0,20-6.2,36.5-18.1,47.8c-15.3,15.3-39.4,22.5-66.5,22.5c-7.2,0-13.7-0.3-18.7-1.3v79.3h-38.1V156.7z M216.8,254.8
				c4.7,1.2,10.9,1.6,18.7,1.6c28.7,0,46.2-14.1,46.2-38.7c0-23.4-16.2-35.9-42.8-35.9c-10.6,0-18.1,0.9-22.2,1.9V254.8z"/>
		</g>
		<g>
			<path class="st2" d="M178.7,149.8c13.7-2.5,32.8-4.4,58.7-4.4c28.1,0,48.7,5.9,62.2,17.2c12.5,10.3,20.6,26.9,20.6,46.5
				c0,20-6.2,36.5-18.1,47.8c-15.3,15.3-39.4,22.5-66.5,22.5c-7.2,0-13.7-0.3-18.7-1.3v79.3h-38.1V149.8z M216.8,247.9
				c4.7,1.2,10.9,1.6,18.7,1.6c28.7,0,46.2-14.1,46.2-38.7c0-23.4-16.2-35.9-42.8-35.9c-10.6,0-18.1,0.9-22.2,1.9V247.9z"/>
		</g>
	</g>
	<g>
		<g class="st3">
			<path class="st4" d="M332,329.2c8.7,5.3,25.3,10.9,39,10.9c16.9,0,24.4-6.9,24.4-16.9c0-10.3-6.2-15.6-25-22.2
				c-29.7-10.3-42.2-26.5-41.9-44.4c0-26.9,22.2-47.8,57.5-47.8c16.9,0,31.5,4.4,40.3,9.1l-7.5,27.2c-6.6-3.8-18.7-8.7-32.2-8.7
				c-13.7,0-21.2,6.6-21.2,15.9c0,9.7,7.2,14.4,26.6,21.2c27.5,10,40.3,24.1,40.6,46.5c0,27.5-21.6,47.8-61.9,47.8
				c-18.4,0-35-4.7-46.2-10.9L332,329.2z"/>
		</g>
		<g>
			<path class="st2" d="M332,322.2c8.7,5.3,25.3,10.9,39,10.9c16.9,0,24.4-6.9,24.4-16.9c0-10.3-6.2-15.6-25-22.2
				c-29.7-10.3-42.2-26.5-41.9-44.4c0-26.9,22.2-47.8,57.5-47.8c16.9,0,31.5,4.4,40.3,9.1l-7.5,27.2c-6.6-3.8-18.7-8.7-32.2-8.7
				c-13.7,0-21.2,6.6-21.2,15.9c0,9.7,7.2,14.4,26.6,21.2c27.5,10,40.3,24.1,40.6,46.5c0,27.5-21.6,47.8-61.9,47.8
				c-18.4,0-35-4.7-46.2-10.9L332,322.2z"/>
		</g>
	</g>
	<g>
		<path class="st2" d="M45.5,530.6c3.1-0.5,7.2-1,12.8-1c6.1,0,10.6,1.3,13.5,3.8c2.7,2.2,4.5,5.9,4.5,10.2c0,4.4-1.4,7.9-3.9,10.4
			c-3.4,3.3-8.6,5-14.5,5c-1.6,0-2.9-0.1-4.1-0.3V576h-8.3V530.6z M53.8,552c1.1,0.3,2.4,0.4,4.1,0.4c6.3,0,10.1-3.1,10.1-8.5
			c0-5.1-3.5-7.8-9.3-7.8c-2.3,0-4,0.2-4.8,0.4V552z"/>
		<path class="st2" d="M83,527.5h8.4v19.7h0.1c1-1.6,2.5-2.9,4.2-3.7c1.7-1,3.7-1.5,5.8-1.5c5.7,0,11.6,3.8,11.6,14.4V576h-8.4
			v-18.7c0-4.8-1.8-8.5-6.4-8.5c-3.3,0-5.6,2.2-6.5,4.7c-0.3,0.8-0.3,1.6-0.3,2.5V576H83V527.5z"/>
		<path class="st2" d="M153.6,559c0,12.2-8.6,17.7-17.1,17.7c-9.3,0-16.6-6.4-16.6-17.1c0-10.9,7.2-17.6,17.2-17.6
			C147,542,153.6,549,153.6,559z M128.6,559.4c0,6.4,3.2,11.3,8.3,11.3c4.8,0,8.1-4.6,8.1-11.4c0-5.2-2.3-11.2-8.1-11.2
			C131,548.1,128.6,553.9,128.6,559.4z"/>
		<path class="st2" d="M170.1,534.2v8.5h8v6.3h-8v14.7c0,4.1,1.1,6.1,4.3,6.1c1.5,0,2.3-0.1,3.3-0.3l0.1,6.3
			c-1.2,0.5-3.5,0.9-6.1,0.9c-3.1,0-5.7-1-7.2-2.7c-1.8-1.9-2.7-5-2.7-9.3V549h-4.7v-6.3h4.7v-6.2L170.1,534.2z"/>
		<path class="st2" d="M215.6,559c0,12.2-8.6,17.7-17.1,17.7c-9.3,0-16.6-6.4-16.6-17.1c0-10.9,7.2-17.6,17.2-17.6
			C209,542,215.6,549,215.6,559z M190.6,559.4c0,6.4,3.2,11.3,8.3,11.3c4.8,0,8.1-4.6,8.1-11.4c0-5.2-2.3-11.2-8.1-11.2
			C193,548.1,190.6,553.9,190.6,559.4z"/>
		<path class="st2" d="M222.2,568.2c1.8,1.2,5.5,2.5,8.5,2.5c3.7,0,5.3-1.6,5.3-3.8c0-2.3-1.4-3.3-5.5-4.8c-6.5-2.2-9.1-5.7-9.1-9.7
			c0-5.9,4.8-10.4,12.6-10.4c3.7,0,6.9,0.9,8.9,2l-1.7,5.9c-1.4-0.8-4.1-1.9-7-1.9c-3,0-4.6,1.5-4.6,3.5c0,2.1,1.6,3.1,5.8,4.6
			c6.1,2.1,8.8,5.2,8.9,10.1c0,6.1-4.7,10.4-13.5,10.4c-4,0-7.6-1-10.1-2.3L222.2,568.2z"/>
		<path class="st2" d="M250.9,527.5h8.4v19.7h0.1c1-1.6,2.5-2.9,4.2-3.7c1.7-1,3.7-1.5,5.8-1.5c5.7,0,11.6,3.8,11.6,14.4V576h-8.4
			v-18.7c0-4.8-1.8-8.5-6.4-8.5c-3.3,0-5.6,2.2-6.5,4.7c-0.3,0.8-0.3,1.6-0.3,2.5V576h-8.4V527.5z"/>
		<path class="st2" d="M321.5,559c0,12.2-8.6,17.7-17.1,17.7c-9.3,0-16.6-6.4-16.6-17.1c0-10.9,7.2-17.6,17.2-17.6
			C314.9,542,321.5,549,321.5,559z M296.5,559.4c0,6.4,3.2,11.3,8.3,11.3c4.8,0,8.1-4.6,8.1-11.4c0-5.2-2.3-11.2-8.1-11.2
			C298.9,548.1,296.5,553.9,296.5,559.4z"/>
		<path class="st2" d="M328.4,553.8c0-4.4-0.1-7.9-0.3-11.1h7.4l0.4,5.1h0.1c2.5-3.8,6.3-5.9,11.4-5.9c7.6,0,14,6.5,14,16.9
			c0,12-7.6,17.8-15.1,17.8c-4.2,0-7.6-1.8-9.3-4.4h-0.1v17.2h-8.4V553.8z M336.8,562.1c0,0.8,0.1,1.6,0.2,2.3
			c0.9,3.4,3.8,5.9,7.4,5.9c5.3,0,8.5-4.4,8.5-11c0-5.9-2.9-10.6-8.3-10.6c-3.5,0-6.7,2.5-7.6,6.2c-0.1,0.7-0.3,1.4-0.3,2.1V562.1z"
			/>
	</g>
</g>
<g>
	<rect x="928.2" y="200.9" class="st1" width="89.7" height="87"/>
	<g>
		
			<image style="overflow:visible;opacity:0.4;" width="439" height="429" xlink:href="4177704B.png"  transform="matrix(0.24 0 0 0.24 919.9875 194.2923)">
		</image>
		<g>
			<g>
				<path class="st2" d="M924,196.9v94.9h97.2v-94.9H924z M1013.4,284.4h-81.5v-79.7h81.5V284.4z"/>
			</g>
		</g>
	</g>
	<g>
		<g class="st3">
			<path class="st4" d="M960.4,224.6v40.2h-7.3v-40.2H960.4z"/>
		</g>
		<g>
			<g>
				<path class="st2" d="M960.4,223.3v40.2h-7.3v-40.2H960.4z"/>
			</g>
		</g>
	</g>
	<g>
		<g class="st3">
			<path class="st4" d="M992.4,222.4v34.2c0,3,0.1,6.2,0.2,8.2h-6l-0.3-4.6h-0.1c-1.6,3.2-4.8,5.2-8.7,5.2
				c-6.3,0-11.3-5.9-11.3-14.8c-0.1-9.7,5.5-15.5,11.9-15.5c3.7,0,6.3,1.7,7.5,3.8h0.1v-16.4H992.4z M985.7,247.8
				c0-0.6-0.1-1.3-0.2-1.9c-0.6-2.9-2.7-5.2-5.8-5.2c-4.3,0-6.7,4.2-6.7,9.6c0,5.3,2.4,9.2,6.7,9.2c2.7,0,5.1-2,5.8-5.2
				c0.2-0.7,0.2-1.4,0.2-2.1V247.8z"/>
		</g>
		<g>
			<path class="st2" d="M992.4,221.1v34.2c0,3,0.1,6.2,0.2,8.2h-6l-0.3-4.6h-0.1c-1.6,3.2-4.8,5.2-8.7,5.2
				c-6.3,0-11.3-5.9-11.3-14.8c-0.1-9.7,5.5-15.5,11.9-15.5c3.7,0,6.3,1.7,7.5,3.8h0.1v-16.4H992.4z M985.7,246.5
				c0-0.6-0.1-1.3-0.2-1.9c-0.6-2.9-2.7-5.2-5.8-5.2c-4.3,0-6.7,4.2-6.7,9.6c0,5.3,2.4,9.2,6.7,9.2c2.7,0,5.1-2,5.8-5.2
				c0.2-0.7,0.2-1.4,0.2-2.1V246.5z"/>
		</g>
	</g>
	<g>
		<path class="st2" d="M926.1,296.4v8.8h-1.6v-8.8H926.1z"/>
		<path class="st2" d="M927.9,300.7c0-0.7,0-1.3-0.1-1.9h1.4l0.1,1h0c0.3-0.5,1-1.1,2-1.1c1.1,0,2.3,0.7,2.3,2.7v3.8h-1.6v-3.6
			c0-0.9-0.3-1.6-1.2-1.6c-0.6,0-1.1,0.5-1.3,0.9c-0.1,0.1-0.1,0.3-0.1,0.5v3.7h-1.6V300.7z"/>
		<path class="st2" d="M935.4,296.5c0.7-0.1,1.6-0.2,2.5-0.2c1.6,0,2.8,0.3,3.6,1c0.9,0.7,1.4,1.7,1.4,3.2c0,1.6-0.5,2.7-1.4,3.5
			c-0.9,0.8-2.3,1.2-4,1.2c-0.9,0-1.6-0.1-2.2-0.1V296.5z M937,303.9c0.2,0,0.6,0,0.9,0c2.1,0,3.3-1.1,3.3-3.4c0-1.9-1.1-3-3.1-3
			c-0.5,0-0.9,0-1.1,0.1V303.9z"/>
		<path class="st2" d="M945.4,302.4c0,1.1,0.9,1.6,2,1.6c0.7,0,1.3-0.1,1.8-0.3l0.2,1.1c-0.5,0.2-1.3,0.4-2.2,0.4
			c-2.1,0-3.3-1.3-3.3-3.2c0-1.8,1.1-3.4,3.1-3.4c2.1,0,2.7,1.7,2.7,3.1c0,0.3,0,0.5-0.1,0.7H945.4z M948.2,301.3
			c0-0.6-0.2-1.5-1.3-1.5c-1,0-1.4,0.9-1.5,1.5H948.2z"/>
		<path class="st2" d="M950.9,303.6c0.4,0.2,1,0.5,1.6,0.5c0.7,0,1-0.3,1-0.7c0-0.4-0.3-0.6-1-0.9c-1.2-0.4-1.7-1.1-1.7-1.8
			c0-1.1,0.9-2,2.4-2c0.7,0,1.3,0.2,1.7,0.4l-0.3,1.1c-0.3-0.2-0.8-0.4-1.3-0.4c-0.6,0-0.9,0.3-0.9,0.7c0,0.4,0.3,0.6,1.1,0.9
			c1.2,0.4,1.7,1,1.7,1.9c0,1.2-0.9,2-2.6,2c-0.8,0-1.5-0.2-1.9-0.4L950.9,303.6z"/>
		<path class="st2" d="M958.1,297c0,0.5-0.4,0.9-0.9,0.9c-0.5,0-0.9-0.4-0.9-0.9c0-0.5,0.4-0.9,0.9-0.9
			C957.8,296.1,958.1,296.5,958.1,297z M956.4,305.1v-6.3h1.6v6.3H956.4z"/>
		<path class="st2" d="M965.5,304.2c0,1.3-0.3,2.3-0.9,2.9c-0.7,0.6-1.6,0.8-2.4,0.8c-0.8,0-1.7-0.2-2.2-0.5l0.4-1.2
			c0.4,0.2,1.1,0.5,1.8,0.5c1,0,1.8-0.5,1.8-1.9v-0.5h0c-0.4,0.6-1,0.9-1.8,0.9c-1.6,0-2.7-1.3-2.7-3.1c0-2.1,1.4-3.3,2.9-3.3
			c1,0,1.5,0.5,1.8,1h0l0.1-0.8h1.4c0,0.4-0.1,1-0.1,1.8V304.2z M963.9,301.3c0-0.2,0-0.3-0.1-0.4c-0.2-0.6-0.6-1-1.3-1
			c-0.9,0-1.6,0.8-1.6,2.1c0,1.1,0.5,2,1.5,2c0.6,0,1.1-0.4,1.3-1c0.1-0.2,0.1-0.4,0.1-0.6V301.3z"/>
		<path class="st2" d="M967.1,300.7c0-0.7,0-1.3-0.1-1.9h1.4l0.1,1h0c0.3-0.5,1-1.1,2-1.1c1.1,0,2.3,0.7,2.3,2.7v3.8h-1.6v-3.6
			c0-0.9-0.3-1.6-1.2-1.6c-0.6,0-1.1,0.5-1.2,0.9c-0.1,0.1-0.1,0.3-0.1,0.5v3.7h-1.6V300.7z"/>
	</g>
</g>
<g>
	<rect x="1118.4" y="220.9" class="st1" width="89.7" height="87"/>
	<g>
		
			<image style="overflow:visible;opacity:0.4;" width="439" height="429" xlink:href="4177704E.png"  transform="matrix(0.24 0 0 0.24 1110.7076 214.2578)">
		</image>
		<g>
			<g>
				<path class="st2" d="M1114.7,216.9v94.9h97.2v-94.9H1114.7z M1204.1,304.3h-81.5v-79.7h81.5V304.3z"/>
			</g>
		</g>
	</g>
	<g>
		<g class="st3">
			<path class="st4" d="M1150,273.5l-3.5,11.4h-7.6l12.9-40.2h9.4l13.1,40.2h-7.9l-3.6-11.4H1150z M1161.5,267.9l-3.2-9.9
				c-0.8-2.4-1.4-5.2-2-7.5h-0.1c-0.6,2.3-1.2,5.1-1.9,7.5l-3.1,9.9H1161.5z"/>
		</g>
		<g>
			<path class="st2" d="M1150,272.1l-3.5,11.4h-7.6l12.9-40.2h9.4l13.1,40.2h-7.9l-3.6-11.4H1150z M1161.5,266.6l-3.2-9.9
				c-0.8-2.4-1.4-5.2-2-7.5h-0.1c-0.6,2.3-1.2,5.1-1.9,7.5l-3.1,9.9H1161.5z"/>
		</g>
	</g>
	<g>
		<g class="st3">
			<path class="st4" d="M1184.9,247.7c0,2.2-1.6,3.9-4.2,3.9c-2.4,0-4.1-1.7-4.1-3.9c0-2.3,1.7-4,4.1-4
				C1183.3,243.7,1184.9,245.4,1184.9,247.7z M1177.1,284.8v-29h7.4v29H1177.1z"/>
		</g>
		<g>
			<path class="st2" d="M1184.9,246.4c0,2.2-1.6,3.9-4.2,3.9c-2.4,0-4.1-1.7-4.1-3.9c0-2.3,1.7-4,4.1-4
				C1183.3,242.4,1184.9,244.1,1184.9,246.4z M1177.1,283.5v-29h7.4v29H1177.1z"/>
		</g>
	</g>
	<g>
		<path class="st2" d="M1116.3,316.3v8.8h-1.6v-8.8H1116.3z"/>
		<path class="st2" d="M1118.2,315.8h1.6v9.2h-1.6V315.8z"/>
		<path class="st2" d="M1121.5,315.8h1.6v9.2h-1.6V315.8z"/>
		<path class="st2" d="M1130.5,323.2c0,0.8,0,1.4,0.1,1.9h-1.4l-0.1-0.9h0c-0.3,0.4-0.9,1.1-2,1.1c-1.1,0-2.2-0.7-2.2-2.8v-3.7h1.6
			v3.4c0,1.1,0.3,1.7,1.2,1.7c0.7,0,1.1-0.4,1.2-0.9c0.1-0.1,0.1-0.3,0.1-0.5v-3.8h1.6V323.2z"/>
		<path class="st2" d="M1132.2,323.6c0.4,0.2,1,0.5,1.6,0.5c0.7,0,1-0.3,1-0.7c0-0.4-0.3-0.6-1-0.9c-1.2-0.4-1.7-1.1-1.7-1.8
			c0-1.1,0.9-2,2.4-2c0.7,0,1.3,0.2,1.7,0.4l-0.3,1.1c-0.3-0.2-0.8-0.4-1.3-0.4c-0.6,0-0.9,0.3-0.9,0.7c0,0.4,0.3,0.6,1.1,0.9
			c1.2,0.4,1.7,1,1.7,1.9c0,1.2-0.9,2-2.6,2c-0.8,0-1.5-0.2-1.9-0.4L1132.2,323.6z"/>
		<path class="st2" d="M1139.5,317.1v1.6h1.5v1.2h-1.5v2.8c0,0.8,0.2,1.2,0.8,1.2c0.3,0,0.4,0,0.6-0.1l0,1.2
			c-0.2,0.1-0.7,0.2-1.2,0.2c-0.6,0-1.1-0.2-1.4-0.5c-0.4-0.4-0.5-1-0.5-1.8v-3h-0.9v-1.2h0.9v-1.2L1139.5,317.1z"/>
		<path class="st2" d="M1142.2,320.8c0-0.9,0-1.5-0.1-2h1.4l0.1,1.2h0c0.3-0.9,1.1-1.3,1.7-1.3c0.2,0,0.2,0,0.4,0v1.5
			c-0.1,0-0.3,0-0.5,0c-0.8,0-1.3,0.5-1.4,1.2c0,0.1,0,0.3,0,0.5v3.3h-1.6V320.8z"/>
		<path class="st2" d="M1151.7,323.6c0,0.6,0,1.1,0.1,1.5h-1.4l-0.1-0.7h0c-0.4,0.5-1,0.8-1.9,0.8c-1.3,0-2-0.9-2-1.9
			c0-1.6,1.4-2.4,3.8-2.4v-0.1c0-0.4-0.2-1.1-1.3-1.1c-0.6,0-1.3,0.2-1.7,0.5l-0.3-1c0.5-0.3,1.3-0.6,2.3-0.6c2,0,2.6,1.3,2.6,2.7
			V323.6z M1150.1,322c-1.1,0-2.2,0.2-2.2,1.2c0,0.6,0.4,0.9,0.9,0.9c0.7,0,1.1-0.4,1.3-0.9c0-0.1,0-0.2,0-0.4V322z"/>
		<path class="st2" d="M1155.1,317.1v1.6h1.5v1.2h-1.5v2.8c0,0.8,0.2,1.2,0.8,1.2c0.3,0,0.4,0,0.6-0.1l0,1.2
			c-0.2,0.1-0.7,0.2-1.2,0.2c-0.6,0-1.1-0.2-1.4-0.5c-0.4-0.4-0.5-1-0.5-1.8v-3h-0.9v-1.2h0.9v-1.2L1155.1,317.1z"/>
		<path class="st2" d="M1163.8,321.9c0,2.3-1.6,3.4-3.3,3.4c-1.8,0-3.2-1.2-3.2-3.3c0-2.1,1.4-3.4,3.3-3.4
			C1162.5,318.6,1163.8,319.9,1163.8,321.9z M1159,321.9c0,1.2,0.6,2.1,1.6,2.1c0.9,0,1.5-0.9,1.5-2.2c0-1-0.4-2.1-1.5-2.1
			C1159.5,319.8,1159,320.9,1159,321.9z"/>
		<path class="st2" d="M1165.1,320.8c0-0.9,0-1.5-0.1-2h1.4l0.1,1.2h0c0.3-0.9,1.1-1.3,1.7-1.3c0.2,0,0.2,0,0.4,0v1.5
			c-0.1,0-0.3,0-0.5,0c-0.8,0-1.3,0.5-1.4,1.2c0,0.1,0,0.3,0,0.5v3.3h-1.6V320.8z"/>
	</g>
</g>
</svg>
