<?xml version="1.0" encoding="utf-8"?>
<!-- Generator: Adobe Illustrator 19.2.0, SVG Export Plug-In . SVG Version: 6.00 Build 0)  -->
<svg version="1.1" id="Layer_1" xmlns="http://www.w3.org/2000/svg" xmlns:xlink="http://www.w3.org/1999/xlink" x="0px" y="0px"
	 viewBox="0 0 1000 1000" style="enable-background:new 0 0 1000 1000;" xml:space="preserve">
<style type="text/css">
	.st0{fill:#58595B;}
	.st1{fill:#603913;}
	.st2{fill:#FFFFFF;}
	.st3{fill:none;stroke:#000000;stroke-width:0.344;stroke-miterlimit:10;}
	.st4{fill:#845121;}
	.st5{fill:#462C13;}
	.st6{fill:#BC6F29;}
	.st7{fill:url(#SVGID_1_);}
	.st8{fill:url(#SVGID_2_);}
	.st9{fill:url(#SVGID_3_);}
	.st10{fill:url(#SVGID_4_);}
	.st11{fill:url(#SVGID_5_);}
	.st12{fill:url(#SVGID_6_);}
	.st13{fill:url(#SVGID_7_);}
	.st14{fill:url(#SVGID_8_);}
	.st15{fill:url(#SVGID_9_);}
	.st16{fill:#939598;}
	.st17{fill:none;stroke:#FFFFFF;stroke-width:0.344;stroke-miterlimit:10;}
	.st18{fill:#BCBEC0;}
	.st19{fill:#E6E7E8;}
	.st20{fill:none;stroke:#FFFFFF;stroke-width:0.16;stroke-miterlimit:10;}
	.st21{fill:none;stroke:#462C13;stroke-width:0.1823;stroke-miterlimit:10;}
	.st22{fill:#D1D3D4;}
	.st23{fill:none;stroke:#845121;stroke-width:0.5068;stroke-miterlimit:10;}
	.st24{fill:none;stroke:#845121;stroke-width:0.3272;stroke-miterlimit:10;}
	.st25{fill:none;stroke:#FFFFFF;stroke-width:0.2584;stroke-miterlimit:10;}
</style>
<rect x="-374.9" y="1029" class="st0" width="998.5" height="998.5"/>
<rect x="1749.8" y="801" class="st1" width="998.5" height="998.5"/>
<g>
	<path class="st2" d="M654.4,503.9c0,113-68.7,172.9-152.4,172.9c-86.7,0-147.6-67.2-147.6-166.6c0-104.2,64.8-172.4,152.4-172.4
		C596.5,337.8,654.4,406.5,654.4,503.9z M399.7,509.2c0,70.1,38,133,104.7,133c67.2,0,105.2-61.9,105.2-136.4
		c0-65.3-34.1-133.4-104.7-133.4C434.8,372.4,399.7,437.2,399.7,509.2z"/>
</g>
<path d="M-220.6,598.4v-89.1L-287,388.6h30.8l29.6,57.9c8.1,15.9,14.3,28.6,20.9,43.3h0.6c5.9-13.7,13.1-27.4,21.2-43.3l30.2-57.9
	h30.8l-70.4,120.5v89.4H-220.6z"/>
<g>
	<path d="M-419.9,281.8c0,132.6-80.6,202.9-178.9,202.9c-101.7,0-173.2-78.9-173.2-195.5c0-122.3,76-202.3,178.9-202.3
		C-487.9,86.9-419.9,167.5-419.9,281.8z M-718.8,288.1c0,82.3,44.6,156,122.9,156c78.9,0,123.5-72.6,123.5-160
		c0-76.6-40-156.6-122.9-156.6C-677.6,127.5-718.8,203.5-718.8,288.1z"/>
	<path d="M-340.7,1063v-83.5l-62.2-113.3h28.9l27.7,54.3c7.6,14.9,13.4,26.9,19.6,40.6h0.6c5.5-12.9,12.3-25.7,19.9-40.6l28.3-54.3
		h28.9l-66,113v83.8H-340.7z"/>
</g>
<rect x="394.6" y="538.7" class="st3" width="0" height="0.9"/>
<g>
	<path class="st2" d="M526.5,532.1c1.8-0.4,3.6-0.6,5.4-1.1c2.3-0.7,3.6-2.8,5.4-4.1c1-0.7,1.7-1,2.4-1.9c0.2-0.3,0.7-2.9,1.4-2.5
		c0,0,0,0,0,0c0-0.2,0.1-0.3,0.2-0.5c0.5-1.2,1.3-3,2.3-3.9c2.7-2.3,7.1-1.2,10.3-2.1c-1.7-0.5-4.3,0-6.2-0.1
		c-1.5-0.1-3.6,0.2-4.6,1.3c-0.8,0.9-1.6,2.2-2.2,3.3c-0.5,1-1.5,2.5-1.1,3.6c-0.1,0.1-0.3,0.2-0.4,0.2c0.1,0,0.1,0,0.2-0.1
		c-2.2,1.2-5.7,3.1-6.8,5.2c-2.3,0.5-4.8,0.8-7.2,1.2l0.3,1.6C526.2,532.2,526.4,532.2,526.5,532.1z"/>
	<path class="st2" d="M539.7,525c-0.7,0.9-1.4,1.3-2.4,1.9c-1.9,1.3-3.1,3.4-5.4,4.1c-1.8,0.6-3.6,0.7-5.4,1.1
		c-0.2,0-0.4,0.1-0.5,0.1l0.1,0.6c2.4-0.4,5-0.6,7.2-1.6c1.5-0.6,1.6-1.6,2.5-2.5c1.1-1.1,3.1-1.7,4.2-2.9c0.1-0.1,0.4-0.6,0.6-1.3
		c0.2-0.7,0.3-1.5,0.5-2.2c0,0,0,0,0,0C540.4,522.1,540,524.7,539.7,525z"/>
</g>
<g>
	<path class="st4" d="M-87.8,279.2c-3.4,0.9-6.4,2.5-10,3c-4.7,0.7-10.1-2.9-15.1-4.1c-2.6-0.6-4.2-0.6-6.8-2.1
		c-0.9-0.5-5.9-6.2-6.4-4.6c0,0,0,0,0,0.1c-0.3-0.3-0.7-0.7-1-0.9c-2.9-2.4-7-5.9-10.2-7c-8-2.7-12.6,4.7-19.1,5.8
		c1.7-2.9,6.4-4.7,9.1-6.8c2.1-1.7,5.8-3.2,9.1-1.6c2.8,1.3,6.1,3.5,8.8,5.5c2.5,1.8,6.6,4.4,7.8,7.6c0.3,0,0.7,0.1,1.1,0.1
		c-0.1,0-0.3,0-0.4,0c5.3,0.5,13.9,1.5,19,5.3c4.3-1.3,8.5-3.1,12.8-4.7l2.2,4.1C-87.1,279-87.4,279.1-87.8,279.2z"/>
	<path class="st5" d="M-119.7,276c2.6,1.5,4.3,1.5,6.8,2.1c5,1.2,10.4,4.8,15.1,4.1c3.6-0.5,6.6-2.1,10-3c0.3-0.1,0.7-0.2,1-0.3
		l0.9,1.6c-4.3,1.6-8.5,3.7-13.4,3.8c-3.2,0.1-5-2.1-8-3.3c-3.6-1.5-7.6-0.8-11.1-2.5c-0.3-0.2-1.7-1.2-3.1-2.4
		c-1.5-1.5-2.9-3.2-4.5-4.7c0,0,0-0.1,0-0.1C-125.6,269.8-120.6,275.5-119.7,276z"/>
</g>
<g>
	<path class="st4" d="M-839.2,1461.7c0,0,15.2-146.9-7.6-263.4c0,0-20.3-187.4,0-200.1c0,0,27.9-96.2,50.7-101.3
		c0,0,30.4-73.5,40.5-121.6c0,0,15.2-45.6,40.5-98.8c0,0,53.2-83.6,70.9-83.6l-58.3-25.3c0,0-40.5,45.6-53.2,73.5
		c0,0-38,88.6-68.4,131.7c0,0-30.4,73.5-70.9,119c0,0-70.9-139.3-88.6-177.3c0,0-45.6-63.3-68.4-83.6c0,0-27.9-48.1-50.7-78.5
		l-32.9,58.3c0,0,43.1,70.9,63.3,81.1c0,0,91.2,136.8,91.2,164.6c0,0,20.3,101.3,10.1,141.8c0,0-5.1,134.2,5.1,200.1
		c0,0,6.5,112-7.6,164.6c0,0-21.4,69.4-17.7,83.6C-987.5,1460.7-839.2,1461.7-839.2,1461.7z"/>
	<path class="st6" d="M-975.1,900.8c0,0,65.5,375.2,23.8,542l6,8.9l-49.2-5.3C-965.8,1517.3-961.2,1103.9-975.1,900.8z"/>
	<path class="st5" d="M-864.6,1457.7c0-77.4-32.8-402-14.9-494.3c0,0,65.5-110.2,92.3-119.1c0,0,20.8-95.3,35.7-101.3
		c0,0-26.8,122.1-44.7,145.9c0,0-38.7,44.7-53.6,98.3c0,0-26.8,32.8-6,199.5c0,0,17.9,190.6,11.9,268L-864.6,1457.7z"/>
</g>
<path class="st2" d="M518.6,653.8c0,0,3.3-31.5-1.6-56.5c0,0-4.3-40.2,0-42.9c0,0,6-20.6,10.9-21.7c0,0,6.5-15.8,8.7-26.1
	c0,0,3.3-9.8,8.7-21.2c0,0,11.4-17.9,15.2-17.9l-12.5-5.4c0,0-8.7,9.8-11.4,15.8c0,0-8.1,19-14.7,28.2c0,0-9.8,45.6-18.5,55.4
	c0,0-11.9-59.7-15.7-67.9c0,0-9.8-13.6-14.7-17.9c0,0-6-10.3-10.9-16.8l-7.1,12.5c0,0,9.2,15.2,13.6,17.4c0,0,13.3,33.9,13.3,39.9
	c0,0,10.6,17.1,8.5,25.8c0,0-1.1,28.8,1.1,42.9c0,0,1.4,24-1.6,35.3c0,0-4.6,14.9-3.8,17.9C486.7,653.5,518.6,653.8,518.6,653.8z"/>
<g>
	<linearGradient id="SVGID_1_" gradientUnits="userSpaceOnUse" x1="378.4788" y1="-191.1178" x2="378.4788" y2="-353.8581">
		<stop  offset="0" style="stop-color:#FFF200"/>
		<stop  offset="0.1129" style="stop-color:#FFD911"/>
		<stop  offset="0.261" style="stop-color:#FEC12C"/>
		<stop  offset="0.4127" style="stop-color:#FBAE36"/>
		<stop  offset="0.5675" style="stop-color:#F9A13B"/>
		<stop  offset="0.727" style="stop-color:#F8993D"/>
		<stop  offset="0.8989" style="stop-color:#F8963E"/>
	</linearGradient>
	<path class="st7" d="M283.9-353.9c0,0,9.1,14.9,32.2,21.5c23.1,6.7,71.4,2.6,114.5,25.1c43.1,22.5,44.3,62.5,41.6,75.9
		c-2.7,13.3-17.9,15.9-17.9,15.9s5.5,22.6-29.2,24.4C302.2-202.9,283.9-353.9,283.9-353.9z"/>
	
		<linearGradient id="SVGID_2_" gradientUnits="userSpaceOnUse" x1="393.429" y1="-222.1153" x2="392.7229" y2="-330.7492" gradientTransform="matrix(1 6.500000e-003 -6.500000e-003 1 3.5295 -2.3896)">
		<stop  offset="0.118" style="stop-color:#FCB116"/>
		<stop  offset="0.4888" style="stop-color:#FFF200"/>
		<stop  offset="0.8427" style="stop-color:#FFF456"/>
	</linearGradient>
	<path class="st8" d="M430.6-307.3c-38.8-20.2-81.8-18.9-106.8-23.3c23.4,8,69.4,8.6,108.1,34.2c35,23.2,37.7,57.5,35.1,74.4
		c2.4-2.3,4.4-5.4,5.2-9.5C474.9-244.7,473.7-284.8,430.6-307.3z"/>
	
		<linearGradient id="SVGID_3_" gradientUnits="userSpaceOnUse" x1="362.4976" y1="-191.0885" x2="361.4399" y2="-353.8178" gradientTransform="matrix(1 6.500000e-003 -6.500000e-003 1 3.5295 -2.3896)">
		<stop  offset="0.118" style="stop-color:#FCB116"/>
		<stop  offset="0.4888" style="stop-color:#FFF200"/>
		<stop  offset="0.8427" style="stop-color:#FFF456"/>
	</linearGradient>
	<path class="st9" d="M434.2-202.7C322.5-206.8,289.7-329.8,284.5-353c-0.4-0.5-0.6-0.8-0.6-0.8s18.2,160.1,141.2,162.7
		c14.2-0.8,21.7-5,25.6-9.8c-0.1-0.9-0.1-1.9-0.2-2.9C445.1-203.5,439.3-203.2,434.2-202.7z"/>
</g>
<g>
	<linearGradient id="SVGID_4_" gradientUnits="userSpaceOnUse" x1="755.966" y1="-380.0981" x2="755.966" y2="-541.7375">
		<stop  offset="0" style="stop-color:#FFF200"/>
		<stop  offset="0.1129" style="stop-color:#FFD911"/>
		<stop  offset="0.261" style="stop-color:#FEC12C"/>
		<stop  offset="0.4127" style="stop-color:#FBAE36"/>
		<stop  offset="0.5675" style="stop-color:#F9A13B"/>
		<stop  offset="0.727" style="stop-color:#F8993D"/>
		<stop  offset="0.8989" style="stop-color:#F8963E"/>
	</linearGradient>
	<path class="st10" d="M742.6-541.7c0,0-2.6,12.2,6.2,27c8.8,14.8,36,36.3,47.4,69.2c11.5,32.9-7.5,54.3-15.5,60
		c-8,5.6-17.1-0.5-17.1-0.5s-8.2,14.4-27.2-1.6C678.2-454.1,742.6-541.7,742.6-541.7z"/>
	
		<linearGradient id="SVGID_5_" gradientUnits="userSpaceOnUse" x1="40.2389" y1="-306.0327" x2="-47.2491" y2="-397.8582" gradientTransform="matrix(0.724 0.6898 -0.6898 0.724 535.7109 -189.4256)">
		<stop  offset="0.118" style="stop-color:#FCB116"/>
		<stop  offset="0.4888" style="stop-color:#FFF200"/>
		<stop  offset="0.8427" style="stop-color:#FFF456"/>
	</linearGradient>
	<path class="st11" d="M796.3-445.5c-10.3-29.6-33.3-50-44.3-64.5c8.3,15.7,32,38.5,39.6,70.8c6.9,29.2-8.6,48.4-18.2,56
		c2.4,0,4.9-0.6,7.4-2.4C788.7-391.2,807.7-412.7,796.3-445.5z"/>
	
		<linearGradient id="SVGID_6_" gradientUnits="userSpaceOnUse" x1="11.2916" y1="-274.1329" x2="-100.1999" y2="-391.152" gradientTransform="matrix(0.724 0.6898 -0.6898 0.724 535.7109 -189.4256)">
		<stop  offset="0.118" style="stop-color:#FCB116"/>
		<stop  offset="0.4888" style="stop-color:#FFF200"/>
		<stop  offset="0.8427" style="stop-color:#FFF456"/>
	</linearGradient>
	<path class="st12" d="M746.9-389.2c-56.2-56.9-13-137.1-4.4-151.8c0.1-0.5,0.1-0.7,0.1-0.7s-69,92.4-6.2,154.1
		c7.8,6.6,13.8,8,18.1,7.5c0.4-0.5,0.9-1,1.3-1.6C752.9-384.3,749.8-387,746.9-389.2z"/>
</g>
<g>
	<linearGradient id="SVGID_7_" gradientUnits="userSpaceOnUse" x1="735.1777" y1="-55.7152" x2="735.1777" y2="-290.9786">
		<stop  offset="0" style="stop-color:#FFF200"/>
		<stop  offset="0.1129" style="stop-color:#FFD911"/>
		<stop  offset="0.261" style="stop-color:#FEC12C"/>
		<stop  offset="0.4127" style="stop-color:#FBAE36"/>
		<stop  offset="0.5675" style="stop-color:#F9A13B"/>
		<stop  offset="0.727" style="stop-color:#F8993D"/>
		<stop  offset="0.8989" style="stop-color:#F8963E"/>
	</linearGradient>
	<path class="st13" d="M833.6-291c0,0-6.8,20.4-32.6,34.7c-25.8,14.4-84.9,22.8-130.4,61.7c-45.5,38.9-35.9,87.2-28.9,102.4
		c7,15.2,25.8,14.1,25.8,14.1s-0.3,28.6,41.7,21.2C853.4-105,833.6-291,833.6-291z"/>
	
		<linearGradient id="SVGID_8_" gradientUnits="userSpaceOnUse" x1="226.7801" y1="-32.8554" x2="187.5734" y2="-197.9993" gradientTransform="matrix(-0.973 0.231 0.231 0.973 942.2995 -102.7501)">
		<stop  offset="0.118" style="stop-color:#FCB116"/>
		<stop  offset="0.4888" style="stop-color:#FFF200"/>
		<stop  offset="0.8427" style="stop-color:#FFF456"/>
	</linearGradient>
	<path class="st14" d="M670.7-194.6c40.9-35,92.8-45.3,121.6-57.5c-25.9,16.1-80.8,29.4-120.1,70.9c-35.5,37.4-29.3,79.3-21.5,98.9
		c-3.5-2.1-6.8-5.2-8.9-9.9C634.8-107.4,625.2-155.7,670.7-194.6z"/>
	
		<linearGradient id="SVGID_9_" gradientUnits="userSpaceOnUse" x1="192.9528" y1="2.5213" x2="138.6142" y2="-226.3601" gradientTransform="matrix(-0.973 0.231 0.231 0.973 942.2995 -102.7501)">
		<stop  offset="0.118" style="stop-color:#FCB116"/>
		<stop  offset="0.4888" style="stop-color:#FFF200"/>
		<stop  offset="0.8427" style="stop-color:#FFF456"/>
	</linearGradient>
	<path class="st15" d="M695.2-68.3C828-104,833.3-260.5,833.2-289.9c0.3-0.7,0.4-1.1,0.4-1.1S856-94.1,709.3-56.9
		c-17.3,3-27.4,0-33.3-4.6c-0.2-1.1-0.4-2.3-0.6-3.5C682-66.2,688.9-67.6,695.2-68.3z"/>
</g>
<path class="st2" d="M454.3-215.5c0,0-21.7-31.4-53.2-31.4"/>
<path class="st2" d="M763.7-386.1c0,0,12.4-25.8,0.4-37.8"/>
<path class="st16" d="M544.7,509.6"/>
<path class="st17" d="M540.6,523c0,0,1.1-0.7,1.8-0.2"/>
<path class="st17" d="M550.2,516c0,0,1.1-0.6,1-1.4"/>
<g>
	<g>
		<path class="st2" d="M556,532.1c0,0-0.8-1.1-2.5-1.4c-1.8-0.4-5.3,0.3-8.7-1.2c-3.3-1.4-3.7-4.4-3.6-5.4c0.1-1,1.2-1.3,1.2-1.3
			s-0.5-1.6,2-2C553.7,521,556,532.1,556,532.1z"/>
		<path class="st18" d="M544.8,529.5c3,1.3,6.2,0.9,8.1,1.1c-1.8-0.5-5.2-0.2-8.3-1.9c-2.7-1.5-3.2-4-3.1-5.3
			c-0.2,0.2-0.3,0.4-0.3,0.7C541.1,525.1,541.4,528.1,544.8,529.5z"/>
		<path class="st19" d="M543.8,521.8c8.3-0.4,11.5,8.6,12.1,10.3c0,0,0,0.1,0,0.1s-2.3-11.8-11.5-11.2c-1.1,0.1-1.6,0.5-1.8,0.9
			c0,0.1,0,0.1,0,0.2C543,521.9,543.5,521.8,543.8,521.8z"/>
	</g>
	<path class="st16" d="M542.5,522.8c0,0,2.2,0.8,3.7,2.1"/>
	<g>
		<g>
			<path class="st2" d="M542.2,522.9C542.2,522.9,542.2,523,542.2,522.9c0.2,0.2,0.5,0.1,0.3-0.1c-0.1-0.1-0.1-0.1-0.2-0.2
				C542.2,522.5,542,522.8,542.2,522.9L542.2,522.9z"/>
		</g>
	</g>
</g>
<path class="st20" d="M546.9,488.9c0,0,0.6,0.1,0.6,0.5"/>
<path class="st21" d="M484.6,568c0,0,0.4,1.2-0.2,1.8"/>
<g>
	<g>
		<path class="st2" d="M554.7,505.1c0,0-0.5,0.6-0.5,1.7c0.1,1.1,1,3.2,0.6,5.4c-0.3,2.2-2.1,2.9-2.7,3c-0.6,0.1-1-0.6-1-0.6
			s-0.9,0.6-1.5-0.9C548.3,508.1,554.7,505.1,554.7,505.1z"/>
		<path class="st22" d="M554.8,512.2c0.3-2-0.4-3.9-0.6-5.1c0,1.2,0.7,3.2,0.1,5.3c-0.5,1.9-2,2.5-2.8,2.7c0.1,0.1,0.3,0.1,0.5,0.1
			C552.7,515.1,554.5,514.5,554.8,512.2z"/>
		<path class="st19" d="M550.3,514c-1.5-5,3.5-8.3,4.4-8.9c0,0,0,0,0,0s-6.8,3.2-5.1,8.7c0.2,0.6,0.5,0.9,0.8,1c0,0,0.1,0,0.1-0.1
			C550.5,514.4,550.4,514.2,550.3,514z"/>
	</g>
	<path class="st22" d="M551.1,514.7c0,0,1.5-1.1,1.2-2.2"/>
</g>
<path class="st23" d="M463.8,552c0,0-0.6-1.8-1.9-1.8"/>
<path class="st24" d="M474.8,555.1c0,0,1.2,0.2,1.6-0.5"/>
<g>
	<g>
		<path class="st2" d="M484.5,492.9c-1.7,0.2-3.3,0.8-5,0.8c-2.3,0.1-4.6-2-6.8-2.8c-1.2-0.4-2-0.5-3.1-1.4
			c-0.4-0.3-2.3-3.2-2.7-2.5c0,0,0,0,0,0c-0.1-0.2-0.3-0.3-0.4-0.5c-1.2-1.3-2.8-3.1-4.3-3.8c-3.6-1.7-6.4,1.4-9.6,1.6
			c1.1-1.2,3.5-1.8,4.9-2.6c1.1-0.7,3-1.2,4.5-0.2c1.2,0.8,2.6,2,3.7,3.1c1,1,2.8,2.4,3.1,4c0.2,0,0.3,0.1,0.5,0.1
			c-0.1,0-0.1,0-0.2,0c2.5,0.6,6.5,1.5,8.6,3.6c2.2-0.3,4.3-0.9,6.5-1.4l0.7,2C484.9,492.9,484.7,492.9,484.5,492.9z"/>
		<path class="st2" d="M469.6,489.6c1.1,0.8,1.9,0.9,3.1,1.4c2.3,0.8,4.6,2.8,6.8,2.8c1.8,0,3.3-0.6,5-0.8c0.2,0,0.3,0,0.5-0.1
			l0.3,0.8c-2.2,0.5-4.4,1.2-6.7,1c-1.5-0.2-2.2-1.2-3.5-2c-1.6-0.9-3.6-0.8-5.1-1.8c-0.1-0.1-0.7-0.6-1.3-1.3
			c-0.6-0.8-1.1-1.7-1.7-2.4c0,0,0,0,0,0C467.4,486.4,469.3,489.3,469.6,489.6z"/>
	</g>
	<path class="st25" d="M454.2,483.9c0,0-1.3-2.1-3-1.8"/>
	<g>
		<g>
			<path class="st2" d="M434.3,477.1c0,0,1.2,0.9,3.3,0.7c2.1-0.2,5.8-2.2,10-1.8c4.2,0.4,5.6,3.5,5.8,4.7c0.2,1.2-0.9,1.9-0.9,1.9
				s1.2,1.6-1.5,2.9C440.8,488.5,434.3,477.1,434.3,477.1z"/>
			<path class="st22" d="M447.6,475.9c-3.8-0.3-7.2,1.2-9.3,1.7c2.1-0.1,5.8-1.6,9.8-0.8c3.6,0.7,4.9,3.4,5.3,4.8
				c0.1-0.3,0.2-0.6,0.1-0.9C453.2,479.5,451.8,476.3,447.6,475.9z"/>
			<path class="st19" d="M451.3,484.2c-9.1,3.4-15.8-5.4-16.9-7.1c0,0-0.1,0-0.1,0s6.8,12.2,16.7,8.3c1.1-0.5,1.6-1.1,1.7-1.6
				c0-0.1-0.1-0.1-0.1-0.2C452.2,483.7,451.7,483.9,451.3,484.2z"/>
		</g>
		<path class="st22" d="M452,482.2c0,0-2.2-2.6-4.1-1.9"/>
	</g>
</g>
<g>
	<path class="st2" d="M519.8,650.5c-4.8,0.2-9.6,0.4-14.5,0.6"/>
	<g>
		<path class="st2" d="M519.8,650.3c-4.8,0.2-9.6,0.4-14.5,0.6c-0.2,0-0.2,0.4,0,0.3c4.8-0.2,9.6-0.4,14.5-0.6
			C520,650.6,520,650.3,519.8,650.3L519.8,650.3z"/>
	</g>
</g>
<g>
	<path class="st2" d="M523.2,651c-8.4-1.8-17-2-25.5-0.7"/>
	<g>
		<path class="st2" d="M523.3,650.8c-8.4-1.7-17-1.9-25.6-0.7c-0.2,0-0.1,0.4,0.1,0.3c8.5-1.3,17-1,25.4,0.7
			C523.4,651.2,523.5,650.9,523.3,650.8L523.3,650.8z"/>
	</g>
</g>
<g>
	<path class="st2" d="M495,651.2c11.5,2,23,4,34.4,6"/>
	<g>
		<path class="st2" d="M494.9,651.3c11.5,2,23,4,34.4,6c0.2,0,0.3-0.3,0.1-0.3c-11.5-2-23-4-34.4-6
			C494.8,651,494.7,651.3,494.9,651.3L494.9,651.3z"/>
	</g>
</g>
</svg>
