<?xml version="1.0" encoding="utf-8"?>
<!-- Generator: Adobe Illustrator 19.2.0, SVG Export Plug-In . SVG Version: 6.00 Build 0)  -->
<svg version="1.1" id="Layer_1" xmlns="http://www.w3.org/2000/svg" xmlns:xlink="http://www.w3.org/1999/xlink" x="0px" y="0px"
	 viewBox="0 0 1000 1000" style="enable-background:new 0 0 1000 1000;" xml:space="preserve">
<style type="text/css">
	.st0{fill:#603913;}
	.st1{display:none;}
	.st2{display:inline;fill:#FFFFFF;}
	.st3{fill:#FFFFFF;}
	.st4{fill:#845121;}
	.st5{fill:#462C13;}
	.st6{fill:#BC6F29;}
	.st7{fill:url(#SVGID_1_);}
	.st8{fill:url(#SVGID_2_);}
	.st9{fill:url(#SVGID_3_);}
	.st10{fill:url(#SVGID_4_);}
	.st11{fill:url(#SVGID_5_);}
	.st12{fill:url(#SVGID_6_);}
	.st13{fill:url(#SVGID_7_);}
	.st14{fill:url(#SVGID_8_);}
	.st15{fill:url(#SVGID_9_);}
	.st16{fill:none;stroke:#000000;stroke-miterlimit:10;}
	.st17{fill:#939598;}
	.st18{fill:#BCBEC0;}
	.st19{fill:#E6E7E8;}
	.st20{fill:#D1D3D4;}
	.st21{fill:none;stroke:#FFFFFF;stroke-miterlimit:10;}
	.st22{fill:none;stroke:#FFFFFF;stroke-width:0.4651;stroke-miterlimit:10;}
	.st23{fill:none;stroke:#462C13;stroke-width:0.53;stroke-miterlimit:10;}
	.st24{fill:none;stroke:#FFFFFF;stroke-width:1.4988;stroke-miterlimit:10;}
	.st25{fill:none;stroke:#845121;stroke-width:1.4732;stroke-miterlimit:10;}
	.st26{fill:none;stroke:#845121;stroke-width:0.9511;stroke-miterlimit:10;}
	.st27{fill:none;stroke:#FFFFFF;stroke-width:1.0083;stroke-miterlimit:10;}
	.st28{font-family:'PoorRichard-Regular';}
	.st29{font-size:1082.7871px;}
</style>
<rect x="1230" y="-11.5" class="st0" width="998.5" height="998.5"/>
<g class="st1">
	<path class="st2" d="M940.4,497.4c0,328.4-199.6,502.5-443.1,502.5c-252,0-428.9-195.3-428.9-484.1
		c0-302.9,188.3-501.1,443.1-501.1C772,14.7,940.4,214.3,940.4,497.4z M200.1,512.9c0,203.8,110.4,386.4,304.3,386.4
		c195.3,0,305.8-179.8,305.8-396.4c0-189.7-99.1-387.9-304.3-387.9C302,115.2,200.1,303.4,200.1,512.9z"/>
</g>
<path d="M-220.6,598.4v-89.1L-287,388.6h30.8l29.6,57.9c8.1,15.9,14.3,28.6,20.9,43.3h0.6c5.9-13.7,13.1-27.4,21.2-43.3l30.2-57.9
	h30.8l-70.4,120.5v89.4L-220.6,598.4L-220.6,598.4z"/>
<path class="st3" d="M-322.3-396.3c0,132.6-80.6,202.9-178.9,202.9c-101.7,0-173.2-78.9-173.2-195.5c0-122.3,76-202.3,178.9-202.3
	C-390.4-591.2-322.3-510.6-322.3-396.3z M-621.3-390c0,82.3,44.6,156,122.9,156c78.9,0,123.5-72.6,123.5-160
	c0-76.6-40-156.6-122.9-156.6C-580.1-550.6-621.3-474.6-621.3-390z"/>
<path class="st3" d="M-588.2,1454.9v-195.7L-734,993.6h67.8l65,127.3c17.8,34.9,31.5,63,45.9,95.1h1.4c13-30.1,28.7-60.2,46.5-95.1
	l66.4-127.3h67.8l-154.7,264.9v196.4H-588.2L-588.2,1454.9z"/>
<g>
	<path class="st4" d="M-87.8,279.2c-3.4,0.9-6.4,2.5-10,3c-4.7,0.7-10.1-2.9-15.1-4.1c-2.6-0.6-4.2-0.6-6.8-2.1
		c-0.9-0.5-5.9-6.2-6.4-4.6c0,0,0,0,0,0.1c-0.3-0.3-0.7-0.7-1-0.9c-2.9-2.4-7-5.9-10.2-7c-8-2.7-12.6,4.7-19.1,5.8
		c1.7-2.9,6.4-4.7,9.1-6.8c2.1-1.7,5.8-3.2,9.1-1.6c2.8,1.3,6.1,3.5,8.8,5.5c2.5,1.8,6.6,4.4,7.8,7.6c0.3,0,0.7,0.1,1.1,0.1
		c-0.1,0-0.3,0-0.4,0c5.3,0.5,13.9,1.5,19,5.3c4.3-1.3,8.5-3.1,12.8-4.7l2.2,4.1C-87.1,279-87.4,279.1-87.8,279.2z"/>
	<path class="st5" d="M-119.7,276c2.6,1.5,4.3,1.5,6.8,2.1c5,1.2,10.4,4.8,15.1,4.1c3.6-0.5,6.6-2.1,10-3c0.3-0.1,0.7-0.2,1-0.3
		l0.9,1.6c-4.3,1.6-8.5,3.7-13.4,3.8c-3.2,0.1-5-2.1-8-3.3c-3.6-1.5-7.6-0.8-11.1-2.5c-0.3-0.2-1.7-1.2-3.1-2.4
		c-1.5-1.5-2.9-3.2-4.5-4.7v-0.1C-125.6,269.8-120.6,275.5-119.7,276z"/>
</g>
<g>
	<path class="st4" d="M-839.2,1461.7c0,0,15.2-146.9-7.6-263.4c0,0-20.3-187.4,0-200.1c0,0,27.9-96.2,50.7-101.3
		c0,0,30.4-73.5,40.5-121.6c0,0,15.2-45.6,40.5-98.8c0,0,53.2-83.6,70.9-83.6l-58.3-25.3c0,0-40.5,45.6-53.2,73.5
		c0,0-38,88.6-68.4,131.7c0,0-30.4,73.5-70.9,119c0,0-70.9-139.3-88.6-177.3c0,0-45.6-63.3-68.4-83.6c0,0-27.9-48.1-50.7-78.5
		l-32.9,58.3c0,0,43.1,70.9,63.3,81.1c0,0,91.2,136.8,91.2,164.6c0,0,20.3,101.3,10.1,141.8c0,0-5.1,134.2,5.1,200.1
		c0,0,6.5,112-7.6,164.6c0,0-21.4,69.4-17.7,83.6C-987.5,1460.7-839.2,1461.7-839.2,1461.7z"/>
	<path class="st6" d="M-975.1,900.8c0,0,65.5,375.2,23.8,542l6,8.9l-49.2-5.3C-965.8,1517.3-961.2,1103.9-975.1,900.8z"/>
	<path class="st5" d="M-864.6,1457.7c0-77.4-32.8-402-14.9-494.3c0,0,65.5-110.2,92.3-119.1c0,0,20.8-95.3,35.7-101.3
		c0,0-26.8,122.1-44.7,145.9c0,0-38.7,44.7-53.6,98.3c0,0-26.8,32.8-6,199.5c0,0,17.9,190.6,11.9,268L-864.6,1457.7z"/>
</g>
<g>
	
		<linearGradient id="SVGID_1_" gradientUnits="userSpaceOnUse" x1="378.4788" y1="1193.1" x2="378.4788" y2="1355.9" gradientTransform="matrix(1 0 0 -1 0 1002)">
		<stop  offset="0" style="stop-color:#FFF200"/>
		<stop  offset="0.1129" style="stop-color:#FFD911"/>
		<stop  offset="0.261" style="stop-color:#FEC12C"/>
		<stop  offset="0.4127" style="stop-color:#FBAE36"/>
		<stop  offset="0.5675" style="stop-color:#F9A13B"/>
		<stop  offset="0.727" style="stop-color:#F8993D"/>
		<stop  offset="0.8989" style="stop-color:#F8963E"/>
	</linearGradient>
	<path class="st7" d="M283.9-353.9c0,0,9.1,14.9,32.2,21.5c23.1,6.7,71.4,2.6,114.5,25.1s44.3,62.5,41.6,75.9
		c-2.7,13.3-17.9,15.9-17.9,15.9s5.5,22.6-29.2,24.4C302.2-202.9,283.9-353.9,283.9-353.9z"/>
	
		<linearGradient id="SVGID_2_" gradientUnits="userSpaceOnUse" x1="394.0945" y1="1224.8156" x2="393.3886" y2="1333.4109" gradientTransform="matrix(1 6.500000e-003 6.500000e-003 -1 -3.627 1000.2539)">
		<stop  offset="0.118" style="stop-color:#FCB116"/>
		<stop  offset="0.4888" style="stop-color:#FFF200"/>
		<stop  offset="0.8427" style="stop-color:#FFF456"/>
	</linearGradient>
	<path class="st8" d="M430.6-307.3c-38.8-20.2-81.8-18.9-106.8-23.3c23.4,8,69.4,8.6,108.1,34.2c35,23.2,37.7,57.5,35.1,74.4
		c2.4-2.3,4.4-5.4,5.2-9.5C474.9-244.7,473.7-284.8,430.6-307.3z"/>
	
		<linearGradient id="SVGID_3_" gradientUnits="userSpaceOnUse" x1="363.1678" y1="1193.7145" x2="362.1104" y2="1356.4076" gradientTransform="matrix(1 6.500000e-003 6.500000e-003 -1 -3.627 1000.2539)">
		<stop  offset="0.118" style="stop-color:#FCB116"/>
		<stop  offset="0.4888" style="stop-color:#FFF200"/>
		<stop  offset="0.8427" style="stop-color:#FFF456"/>
	</linearGradient>
	<path class="st9" d="M434.2-202.7C322.5-206.8,289.7-329.8,284.5-353c-0.4-0.5-0.6-0.8-0.6-0.8s18.2,160.1,141.2,162.7
		c14.2-0.8,21.7-5,25.6-9.8c-0.1-0.9-0.1-1.9-0.2-2.9C445.1-203.5,439.3-203.2,434.2-202.7z"/>
</g>
<g>
	
		<linearGradient id="SVGID_4_" gradientUnits="userSpaceOnUse" x1="755.926" y1="1382.049" x2="755.926" y2="1543.7" gradientTransform="matrix(1 0 0 -1 0 1002)">
		<stop  offset="0" style="stop-color:#FFF200"/>
		<stop  offset="0.1129" style="stop-color:#FFD911"/>
		<stop  offset="0.261" style="stop-color:#FEC12C"/>
		<stop  offset="0.4127" style="stop-color:#FBAE36"/>
		<stop  offset="0.5675" style="stop-color:#F9A13B"/>
		<stop  offset="0.727" style="stop-color:#F8993D"/>
		<stop  offset="0.8989" style="stop-color:#F8963E"/>
	</linearGradient>
	<path class="st10" d="M742.6-541.7c0,0-2.6,12.2,6.2,27s36,36.3,47.4,69.2c11.5,32.9-7.5,54.3-15.5,60c-8,5.6-17.1-0.5-17.1-0.5
		s-8.2,14.4-27.2-1.6C678.2-454.1,742.6-541.7,742.6-541.7z"/>
	
		<linearGradient id="SVGID_5_" gradientUnits="userSpaceOnUse" x1="81.2163" y1="1403.6073" x2="-6.2504" y2="1495.4104" gradientTransform="matrix(0.724 0.6898 0.6898 -0.724 -251.0829 576.9886)">
		<stop  offset="0.118" style="stop-color:#FCB116"/>
		<stop  offset="0.4888" style="stop-color:#FFF200"/>
		<stop  offset="0.8427" style="stop-color:#FFF456"/>
	</linearGradient>
	<path class="st11" d="M796.3-445.5C786-475.1,763-495.5,752-510c8.3,15.7,32,38.5,39.6,70.8c6.9,29.2-8.6,48.4-18.2,56
		c2.4,0,4.9-0.6,7.4-2.4C788.7-391.2,807.7-412.7,796.3-445.5z"/>
	
		<linearGradient id="SVGID_6_" gradientUnits="userSpaceOnUse" x1="52.2712" y1="1371.6202" x2="-59.2641" y2="1488.6854" gradientTransform="matrix(0.724 0.6898 0.6898 -0.724 -251.0829 576.9886)">
		<stop  offset="0.118" style="stop-color:#FCB116"/>
		<stop  offset="0.4888" style="stop-color:#FFF200"/>
		<stop  offset="0.8427" style="stop-color:#FFF456"/>
	</linearGradient>
	<path class="st12" d="M746.9-389.2c-56.2-56.9-13-137.1-4.4-151.8c0.1-0.5,0.1-0.7,0.1-0.7s-69,92.4-6.2,154.1
		c7.8,6.6,13.8,8,18.1,7.5c0.4-0.5,0.9-1,1.3-1.6C752.9-384.3,749.8-387,746.9-389.2z"/>
</g>
<g>
	
		<linearGradient id="SVGID_7_" gradientUnits="userSpaceOnUse" x1="735.1315" y1="1057.677" x2="735.1315" y2="1293" gradientTransform="matrix(1 0 0 -1 0 1002)">
		<stop  offset="0" style="stop-color:#FFF200"/>
		<stop  offset="0.1129" style="stop-color:#FFD911"/>
		<stop  offset="0.261" style="stop-color:#FEC12C"/>
		<stop  offset="0.4127" style="stop-color:#FBAE36"/>
		<stop  offset="0.5675" style="stop-color:#F9A13B"/>
		<stop  offset="0.727" style="stop-color:#F8993D"/>
		<stop  offset="0.8989" style="stop-color:#F8963E"/>
	</linearGradient>
	<path class="st13" d="M833.6-291c0,0-6.8,20.4-32.6,34.7c-25.8,14.4-84.9,22.8-130.4,61.7s-35.9,87.2-28.9,102.4
		s25.8,14.1,25.8,14.1s-0.3,28.6,41.7,21.2C853.4-105,833.6-291,833.6-291z"/>
	
		<linearGradient id="SVGID_8_" gradientUnits="userSpaceOnUse" x1="54.3175" y1="1014.6344" x2="15.0973" y2="1179.8348" gradientTransform="matrix(-0.973 0.231 -0.231 -0.973 1001.3035 892.3919)">
		<stop  offset="0.118" style="stop-color:#FCB116"/>
		<stop  offset="0.4888" style="stop-color:#FFF200"/>
		<stop  offset="0.8427" style="stop-color:#FFF456"/>
	</linearGradient>
	<path class="st14" d="M670.7-194.6c40.9-35,92.8-45.3,121.6-57.5c-25.9,16.1-80.8,29.4-120.1,70.9c-35.5,37.4-29.3,79.3-21.5,98.9
		c-3.5-2.1-6.8-5.2-8.9-9.9C634.8-107.4,625.2-155.7,670.7-194.6z"/>
	
		<linearGradient id="SVGID_9_" gradientUnits="userSpaceOnUse" x1="20.5335" y1="979.27" x2="-33.817" y2="1208.2015" gradientTransform="matrix(-0.973 0.231 -0.231 -0.973 1001.3035 892.3919)">
		<stop  offset="0.118" style="stop-color:#FCB116"/>
		<stop  offset="0.4888" style="stop-color:#FFF200"/>
		<stop  offset="0.8427" style="stop-color:#FFF456"/>
	</linearGradient>
	<path class="st15" d="M695.2-68.3C828-104,833.3-260.5,833.2-289.9c0.3-0.7,0.4-1.1,0.4-1.1S856-94.1,709.3-56.9
		c-17.3,3-27.4,0-33.3-4.6c-0.2-1.1-0.4-2.3-0.6-3.5C682-66.2,688.9-67.6,695.2-68.3z"/>
</g>
<path class="st3" d="M454.3-215.5c0,0-21.7-31.4-53.2-31.4"/>
<path class="st3" d="M763.7-386.1c0,0,12.4-25.8,0.4-37.8"/>
<rect x="185.2" y="598.6" class="st16" width="0" height="2.7"/>
<g>
	<path class="st3" d="M-294.7,866.3c5.2-1.2,10.6-1.7,15.7-3.3c6.7-2.1,10.3-8.1,15.7-11.9c2.8-1.9,4.9-2.9,6.9-5.6
		c0.7-0.9,1.9-8.4,4.1-7.4c0,0,0,0,0.1,0.1c0.1-0.5,0.3-0.9,0.5-1.4c1.5-3.6,3.6-8.7,6.8-11.4c8-6.7,20.5-3.5,30-6.2
		c-4.9-1.3-12.6-0.1-18-0.3c-4.3-0.1-10.4,0.7-13.3,3.9c-2.4,2.7-4.7,6.3-6.4,9.5c-1.6,2.9-4.4,7.3-3.2,10.6
		c-0.4,0.2-0.8,0.5-1.3,0.7c0.2-0.1,0.3-0.1,0.5-0.2c-6.3,3.4-16.6,9.1-19.7,15.2c-6.8,1.5-13.8,2.3-20.8,3.5l0.9,4.6
		C-295.7,866.5-295.2,866.4-294.7,866.3z"/>
	<path class="st3" d="M-256.4,845.5c-2,2.7-4.1,3.6-6.9,5.6c-5.4,3.8-9,9.8-15.7,11.9c-5.1,1.6-10.5,2.1-15.7,3.3
		c-0.5,0.1-1,0.2-1.5,0.3l0.3,1.8c7.1-1.1,14.4-1.9,20.9-4.6c4.3-1.8,4.6-4.5,7.4-7.3c3.3-3.2,9.1-5,12.1-8.4
		c0.3-0.3,1.1-1.9,1.8-3.7c0.6-2,0.8-4.3,1.4-6.3c0,0,0,0-0.1-0.1C-254.5,837.1-255.7,844.6-256.4,845.5z"/>
</g>
<path class="st17" d="M621.5,513.9"/>
<g>
	<g>
		<path class="st3" d="M-209.2,866.1c0,0-2.2-3.1-7.3-4.1s-15.5,0.7-25.2-3.4c-9.7-4.1-10.7-12.7-10.3-15.7c0.4-2.9,3.6-3.8,3.6-3.8
			s-1.6-4.8,5.9-5.8C-215.9,833.8-209.2,866.1-209.2,866.1z"/>
		<path class="st18" d="M-241.8,858.7c8.8,3.7,18,2.6,23.5,3.1c-5.2-1.3-15.2-0.6-24-5.5c-8-4.4-9.2-11.8-8.9-15.5
			c-0.5,0.5-0.9,1.2-1,2.1C-252.5,845.9-251.5,854.6-241.8,858.7z"/>
		<path class="st19" d="M-244.4,836.1c24.2-1.1,33.5,24.9,35.1,29.8c0.1,0.1,0.1,0.2,0.1,0.2s-6.8-34.3-33.4-32.7
			c-3.1,0.4-4.6,1.5-5.4,2.6c0,0.2,0.1,0.4,0.1,0.6C-246.8,836.5-245.5,836.3-244.4,836.1z"/>
	</g>
	<path class="st17" d="M-248.3,839.2c0,0,6.5,2.3,10.7,6.1"/>
	<g>
		<g>
			<path class="st3" d="M-249.3,839.5h0.1c0.2,0.6,1.2,0.3,1-0.3c-0.1-0.3-0.3-0.5-0.6-0.6C-249.3,838.4-249.8,839.3-249.3,839.5
				L-249.3,839.5z"/>
		</g>
	</g>
</g>
<g>
	<g>
		<path class="st3" d="M-212.9,787.6c0,0-1.5,1.8-1.4,5.1s2.8,9.3,1.8,15.8s-6.1,8.4-7.9,8.6c-1.8,0.2-2.8-1.6-2.8-1.6
			s-2.7,1.7-4.4-2.7C-231.5,796.5-212.9,787.6-212.9,787.6z"/>
		<path class="st20" d="M-212.5,808.5c0.9-5.9-1.1-11.3-1.6-14.7c0,3.4,1.9,9.3,0.3,15.4c-1.5,5.5-5.7,7.3-8,7.7
			c0.4,0.2,0.9,0.3,1.4,0.3C-218.6,816.9-213.5,815-212.5,808.5z"/>
		<path class="st19" d="M-225.8,813.5c-4.3-14.5,10-24.1,12.8-25.7c0.1-0.1,0.1-0.1,0.1-0.1s-19.8,9.3-14.8,25.2
			c0.7,1.8,1.6,2.6,2.4,2.9c0.1,0,0.2-0.1,0.4-0.1C-225.2,814.9-225.5,814.1-225.8,813.5z"/>
	</g>
	<path class="st20" d="M-223.3,815.5c0,0,4.4-3.2,3.4-6.3"/>
</g>
<g>
	<g>
		<path class="st3" d="M387.2,396.1c-3.5,0.6-6.7,2-10.3,2.3c-4.7,0.4-9.7-3.5-14.5-5c-2.5-0.8-4.2-0.9-6.6-2.5
			c-0.8-0.6-5.1-6.4-5.8-4.9c0,0,0,0,0,0.1c-0.3-0.3-0.6-0.7-0.9-1c-2.6-2.5-6.3-6.2-9.3-7.4c-7.7-3.1-13.1,3.7-19.7,4.4
			c2.1-2.7,7-4.1,9.9-6c2.3-1.5,6.2-2.8,9.3-1c2.6,1.5,5.7,3.8,8.2,5.9c2.3,1.9,6,4.8,6.9,7.9c0.3,0,0.7,0.1,1.1,0.2
			c-0.1,0-0.3,0-0.4,0c5.2,0.9,13.7,2.4,18.3,6.4c4.5-0.9,8.9-2.5,13.3-3.7l1.7,4.1C387.8,395.9,387.5,396,387.2,396.1z"/>
		<path class="st3" d="M355.7,390.9c2.4,1.6,4.1,1.7,6.6,2.5c4.8,1.5,9.8,5.4,14.5,5c3.6-0.3,6.9-1.6,10.3-2.3
			c0.3-0.1,0.7-0.1,1-0.2l0.7,1.6c-4.5,1.3-8.9,3.1-13.9,2.8c-3.2-0.1-4.7-2.3-7.6-3.7c-3.4-1.7-7.5-1.3-10.8-3.2
			c-0.3-0.2-1.5-1.2-2.8-2.5c-1.3-1.5-2.5-3.3-3.9-4.9c0,0,0,0,0-0.1C350.6,384.4,354.9,390.3,355.7,390.9z"/>
	</g>
	<path class="st3" d="M555.6,901c0,0,9.5-91.6-4.7-164.2c0,0-12.6-116.8,0-124.7c0,0,17.4-60,31.6-63.2c0,0,18.9-45.8,25.3-75.8
		c0,0,9.5-28.4,25.3-61.6c0,0,33.2-52.1,44.2-52.1L641,343.6c0,0-25.3,28.4-33.2,45.8c0,0-23.7,55.3-42.6,82.1
		c0,0-28.5,132.6-53.8,161c0,0-34.6-173.6-45.7-197.3c0,0-28.4-39.5-42.6-52.1c0,0-17.4-30-31.6-48.9L371,370.5
		c0,0,26.8,44.2,39.5,50.5c0,0,38.5,98.6,38.5,116c0,0,30.9,49.8,24.6,75.1c0,0-3.2,83.7,3.2,124.7c0,0,4,69.8-4.7,102.6
		c0,0-13.3,43.3-11.1,52.1S555.6,901,555.6,901z"/>
	<g>
		<g>
			<path class="st3" d="M259.8,365.6c0,0,4.9,3.2,12.8,1.8c7.9-1.3,21.9-9.6,38.2-9.1s22.5,12.4,23.6,16.8s-3.1,7.4-3.1,7.4
				s4.9,6-5.3,11.6C287.3,408.5,259.8,365.6,259.8,365.6z"/>
			<path class="st20" d="M310.8,358.4c-14.6-0.5-27.4,6.2-35.6,8.5c8.2-1,22.2-7.5,37.6-5.4c13.9,1.9,19.7,11.9,21.4,17.4
				c0.4-1,0.6-2.3,0.2-3.6C333.3,370.8,327.1,358.9,310.8,358.4z"/>
			<path class="st19" d="M327.1,389.4c-34.3,15-62.1-17.3-67-23.6c-0.2-0.1-0.3-0.2-0.3-0.2s28.8,45.6,66.2,28.6
				c4.2-2.3,5.8-4.7,6.3-6.7c-0.2-0.3-0.3-0.6-0.5-0.8C330.3,387.6,328.6,388.5,327.1,389.4z"/>
		</g>
		<path class="st20" d="M329.2,381.8c0,0-9.2-9.7-16.4-6.5"/>
	</g>
</g>
<g>
	<path class="st3" d="M549,923.5c-14,0.6-28,1.3-42,1.9"/>
	<g>
		<path class="st3" d="M549,923c-14,0.6-28,1.3-42,1.9c-0.6,0-0.6,1,0,1c14-0.6,28-1.3,42-1.9C549.7,923.9,549.7,922.9,549,923
			L549,923z"/>
	</g>
</g>
<g>
	<path class="st3" d="M559,925c-24.3-5.1-49.5-5.8-74-1.9"/>
	<g>
		<path class="st3" d="M559.1,924.5c-24.4-5.1-49.6-5.8-74.3-1.9c-0.6,0.1-0.4,1.1,0.3,1c24.5-3.8,49.5-3.1,73.7,1.9
			C559.5,925.6,559.8,924.6,559.1,924.5L559.1,924.5z"/>
	</g>
</g>
<g>
	<path class="st3" d="M476.9,925.5c33.4,5.8,66.7,11.7,100.1,17.5"/>
	<g>
		<path class="st3" d="M476.8,926c33.4,5.8,66.7,11.7,100.1,17.5c0.6,0.1,0.9-0.9,0.3-1c-33.4-5.8-66.7-11.7-100.1-17.5
			C476.4,924.9,476.1,925.9,476.8,926L476.8,926z"/>
	</g>
</g>
<g class="st1">
	<path class="st2" d="M100,527.9c0-66.5,9-128.1,27.1-184.8s44.2-105.7,78.2-147.1c34.1-41.3,75.9-73.5,125.5-96.6
		c49.6-23,106-34.5,169.1-34.5S619.4,76.4,669,99.4s91.5,55.2,125.5,96.6c34.1,41.4,60.1,90.4,78.2,147.1S900,461.4,900,527.9
		s-9,128.1-27.1,184.8s-44.2,105.7-78.2,147.1c-34.1,41.4-75.9,73.5-125.5,96.6s-106,34.5-169.1,34.5S380.6,979.4,331,956.4
		s-91.5-55.2-125.5-96.6c-34.1-41.3-60.1-90.4-78.2-147.1S100,594.4,100,527.9z M235,527.9c0,54.5,5.7,105.8,17,153.9
		c11.4,48.1,28.4,90.1,51.1,125.8s51.3,64.1,85.8,84.9c34.5,20.9,75.3,31.3,122.4,31.3c42.9,0,80.3-10.4,112.3-31.3
		c32-20.9,58.3-49.2,78.9-84.9s36.2-77.7,46.7-125.8S765,582.4,765,527.9s-5.5-105.8-16.4-153.9s-27.8-90.1-50.5-125.8
		s-51.3-64.1-85.8-85s-75.3-31.3-122.4-31.3c-46.3,0-85.6,10.4-118,31.3s-58.7,49.2-78.9,85s-34.9,77.7-44.2,125.8
		C239.6,422.1,235,473.4,235,527.9z"/>
</g>
<g>
	<path class="st3" d="M499,986.2c-134.5,0-240.1-43.5-316.8-130.4S67.2,648,67.2,493.4c0-154.2,38.4-275,115.3-362.3
		C259.4,43.7,364.9,0,499,0c134.5,0,240.2,43.7,317.1,131c76.9,87.4,115.3,208.1,115.3,362.3c0,153.8-38.5,274.4-115.3,361.7
		C739.2,942.5,633.5,986.2,499,986.2z M499.6,99.9c-98.1,0-174.3,34.4-228.8,103.1s-81.7,165.5-81.7,290.4s27.2,221.6,81.7,290.1
		s130.7,102.8,228.8,102.8c97.6,0,173.7-34.2,228.1-102.8c54.5-68.5,81.7-165.2,81.7-290.1c0-125.7-27.3-222.7-81.7-291
		C673.3,134.1,597.3,99.9,499.6,99.9z"/>
</g>
<g>
	<path class="st3" d="M-1620,404.6c-149.4-0.2-266.6-55.6-351.6-166.3c-85-110.7-127.4-264.4-127.1-461
		c0.3-196.1,43.2-349.7,128.7-460.7s202.8-166.4,351.7-166.2c149.4,0.2,266.7,55.9,351.9,167.1c85.2,111.2,127.7,264.9,127.5,461
		c-0.3,195.6-43.2,348.9-128.7,459.9C-1353.2,349.4-1470.6,404.8-1620,404.6z M-1617.8-722.5c-108.9-0.1-193.7,43.5-254.3,130.8
		s-91,210.4-91.2,369.2s29.9,281.8,90.2,369.1s145,130.9,253.9,131c108.4,0.1,192.9-43.3,253.5-130.3c60.6-87.1,91-210,91.3-368.8
		c0.2-159.9-29.9-283.3-90.3-370.2C-1424.9-678.8-1509.3-722.4-1617.8-722.5z"/>
</g>
<text transform="matrix(1 0 0 1 -1953.2257 1620.0603)" class="st3" style="font-family:'SegoeUI-Semilight'; font-size:1110.1882px;">O</text>
<rect x="1664.3" y="370.6" class="st16" width="0" height="2.7"/>
<g>
	<path class="st3" d="M2047.9,351.5c5.2-1.2,10.6-1.7,15.7-3.3c6.7-2.1,10.3-8.1,15.7-11.9c2.8-1.9,4.9-2.9,6.9-5.6
		c0.7-0.9,1.9-8.4,4.1-7.4c0,0,0,0,0.1,0.1c0.1-0.5,0.3-0.9,0.5-1.4c1.5-3.6,3.6-8.7,6.8-11.4c8-6.7,20.5-3.5,30-6.2
		c-4.9-1.3-12.6-0.1-18-0.3c-4.3-0.1-10.4,0.7-13.3,3.9c-2.4,2.7-4.7,6.3-6.4,9.5c-1.6,2.9-4.4,7.3-3.2,10.6
		c-0.4,0.2-0.8,0.5-1.3,0.7c0.2-0.1,0.3-0.1,0.5-0.2c-6.3,3.4-16.6,9.1-19.7,15.2c-6.8,1.5-13.8,2.3-20.8,3.5l0.9,4.6
		C2046.8,351.7,2047.4,351.6,2047.9,351.5z"/>
	<path class="st3" d="M2086.2,330.7c-2,2.7-4.1,3.6-6.9,5.6c-5.4,3.8-9,9.8-15.7,11.9c-5.1,1.6-10.5,2.1-15.7,3.3
		c-0.5,0.1-1,0.2-1.5,0.3l0.3,1.8c7.1-1.1,14.4-1.9,20.9-4.6c4.3-1.8,4.6-4.5,7.4-7.3c3.3-3.2,9.1-5,12.1-8.4
		c0.3-0.3,1.1-1.9,1.8-3.7c0.6-2,0.8-4.3,1.4-6.3c0,0,0,0-0.1-0.1C2088.1,322.3,2086.9,329.8,2086.2,330.7z"/>
</g>
<g>
	<path class="st3" d="M1927.9,289c-6.5,1.2-12.5,3.7-19.2,4.2c-8.8,0.7-18-6.5-27-9.3c-4.6-1.4-7.7-1.6-12.2-4.6
		c-1.5-1.1-9.5-11.9-10.8-9.1v0.1c-0.6-0.6-1.1-1.3-1.7-1.8c-4.8-4.7-11.6-11.5-17.3-13.8c-14.3-5.8-24.4,6.8-36.6,8.2
		c3.9-5,13-7.7,18.3-11.2c4.3-2.8,11.4-5.1,17.3-1.8c4.9,2.7,10.5,7.1,15.1,11c4.2,3.6,11.2,8.8,12.8,14.7c0.6,0.1,1.3,0.2,2,0.3
		c-0.2,0-0.5,0-0.7,0c9.6,1.6,25.3,4.4,34,12c8.3-1.8,16.4-4.6,24.8-6.9l3.2,7.6C1929.2,288.7,1928.5,288.9,1927.9,289z"/>
	<path class="st3" d="M1869.5,279.3c4.5,3,7.5,3.2,12.2,4.6c9,2.7,18.2,10,27,9.3c6.8-0.5,12.7-3.1,19.2-4.2
		c0.6-0.1,1.3-0.3,1.9-0.4l1.3,3c-8.4,2.4-16.6,5.7-25.8,5.3c-6-0.3-8.8-4.3-14.1-7c-6.3-3.1-13.9-2.4-20.1-5.9
		c-0.6-0.3-2.8-2.3-5.2-4.7c-2.4-2.8-4.7-6.2-7.2-9.1v-0.1C1860,267.4,1868,278.3,1869.5,279.3z"/>
</g>
<g>
	<g>
		<g>
			<path class="st3" d="M2082.7,230.2c3.8-0.1,7.7,0.4,11.6,0.1c5-0.4,8.3-3.7,12.6-5.4c2.2-0.9,3.9-1.2,5.6-2.6
				c0.6-0.5,2.4-5,3.8-4.1l0,0c0.2-0.3,0.3-0.5,0.5-0.8c1.5-2,3.6-5,6.2-6.3c6.5-3.2,15.1,0.6,22.1,0.1c-3.3-1.5-9-1.8-12.8-2.6
				c-3-0.7-7.5-1-9.9,0.7c-2,1.3-4.1,3.3-5.7,5.1c-1.5,1.6-4,4-3.5,6.2c-0.3,0.1-0.7,0.2-1,0.3c0.1,0,0.3,0,0.4-0.1
				c-4.9,1.3-12.9,3.5-15.8,6.9c-5,0-10.1-0.4-15.3-0.6l0.1,3C2081.9,230.2,2082.3,230.2,2082.7,230.2z"/>
		</g>
		<g>
			<path class="st3" d="M2112.5,222.2c-1.7,1.4-3.4,1.7-5.6,2.6c-4.3,1.7-7.6,5-12.6,5.4c-3.8,0.3-7.7-0.1-11.6-0.1
				c-0.4,0-0.8,0-1.1,0v1.2c5.2,0.2,10.5,0.8,15.4-0.1c3.2-0.6,3.8-2.2,6.1-3.6c2.7-1.6,7.1-1.9,9.6-3.6c0.2-0.2,1-1,1.8-2.1
				c0.6-1.2,1.1-2.6,1.8-3.8l0,0C2114.8,217.3,2113,221.8,2112.5,222.2z"/>
		</g>
	</g>
</g>
<g>
	<path class="st3" d="M1869.7,164.4c4.8-1.1,9.8-1.6,14.6-3.1c6.2-1.9,9.6-7.6,14.6-11.1c2.6-1.8,4.6-2.7,6.4-5.2
		c0.6-0.9,1.8-7.8,3.8-6.9c0,0,0,0,0.1,0.1c0.1-0.4,0.3-0.9,0.5-1.3c1.4-3.3,3.4-8.1,6.4-10.7c7.4-6.3,19.1-3.2,27.9-5.8
		c-4.5-1.2-11.7-0.1-16.7-0.3c-4-0.1-9.7,0.7-12.4,3.6c-2.2,2.5-4.4,5.9-6,8.8c-1.5,2.7-4.1,6.8-3,9.9c-0.4,0.2-0.8,0.4-1.2,0.7
		c0.2-0.1,0.3-0.1,0.5-0.2c-5.9,3.2-15.4,8.5-18.3,14.1c-6.3,1.4-12.9,2.2-19.4,3.3l0.8,4.2C1868.7,164.6,1869.2,164.5,1869.7,164.4
		z"/>
	<path class="st3" d="M1905.3,145.1c-1.8,2.5-3.8,3.4-6.4,5.2c-5,3.5-8.4,9.2-14.6,11.1c-4.8,1.5-9.8,1.9-14.6,3.1
		c-0.5,0.1-1,0.2-1.4,0.3l0.3,1.7c6.6-1.1,13.4-1.7,19.5-4.3c4-1.7,4.2-4.2,6.9-6.8c3.1-3,8.5-4.7,11.3-7.8c0.3-0.3,1-1.8,1.7-3.4
		c0.5-1.9,0.8-4,1.3-5.9c0,0,0,0-0.1-0.1C1907.1,137.3,1906,144.2,1905.3,145.1z"/>
</g>
<g>
	<g>
		<g>
			<path class="st3" d="M2040,271.6c-3.3-0.8-6.7-1.1-9.9-2.1c-4.2-1.3-6.5-5.1-9.9-7.5c-1.7-1.2-3.1-1.8-4.4-3.5
				c-0.4-0.6-1.2-5.3-2.6-4.7l0,0c-0.1-0.3-0.2-0.6-0.3-0.9c-1-2.2-2.3-5.5-4.3-7.2c-5-4.2-13-2.2-18.9-3.9c3.1-0.8,8-0.1,11.3-0.2
				c2.7-0.1,6.6,0.4,8.4,2.5c1.5,1.7,3,4,4,6c1,1.8,2.8,4.6,2,6.7c0.3,0.1,0.5,0.3,0.8,0.4c-0.1,0-0.2-0.1-0.3-0.1
				c4,2.2,10.5,5.8,12.4,9.6c4.3,0.9,8.7,1.5,13.1,2.2l-0.6,2.9C2040.7,271.7,2040.4,271.7,2040,271.6z"/>
		</g>
		<g>
			<path class="st3" d="M2015.9,258.4c1.2,1.7,2.6,2.3,4.4,3.5c3.4,2.4,5.7,6.2,9.9,7.5c3.2,1,6.6,1.3,9.9,2.1
				c0.3,0.1,0.6,0.1,1,0.2l-0.2,1.1c-4.5-0.7-9.1-1.2-13.2-2.9c-2.7-1.1-2.9-2.8-4.6-4.6c-2.1-2-5.7-3.2-7.6-5.3
				c-0.2-0.2-0.7-1.2-1.2-2.3c-0.4-1.3-0.5-2.7-0.9-4l0,0C2014.7,253.2,2015.4,257.9,2015.9,258.4z"/>
		</g>
	</g>
</g>
<g>
	<path class="st3" d="M1943.4,457.5c-5.2-1.2-10.6-1.7-15.7-3.3c-6.7-2.1-10.3-8.1-15.7-11.9c-2.8-1.9-4.9-2.9-6.9-5.6
		c-0.7-0.9-1.9-8.4-4.1-7.4c0,0,0,0-0.1,0.1c-0.1-0.5-0.3-0.9-0.5-1.4c-1.5-3.6-3.6-8.7-6.8-11.4c-8-6.7-20.5-3.5-30-6.2
		c4.9-1.3,12.6-0.1,18-0.3c4.3-0.1,10.4,0.7,13.3,3.9c2.4,2.7,4.7,6.3,6.4,9.5c1.6,2.9,4.4,7.3,3.2,10.6c0.4,0.2,0.8,0.5,1.3,0.7
		c-0.2-0.1-0.3-0.1-0.5-0.2c6.3,3.4,16.6,9.1,19.7,15.2c6.8,1.5,13.8,2.3,20.8,3.5l-0.9,4.6C1944.5,457.7,1943.9,457.6,1943.4,457.5
		z"/>
	<path class="st3" d="M1905.1,436.7c2,2.7,4.1,3.6,6.9,5.6c5.4,3.8,9,9.8,15.7,11.9c5.1,1.6,10.5,2.1,15.7,3.3
		c0.5,0.1,1,0.2,1.5,0.3l-0.3,1.8c-7.1-1.1-14.4-1.9-20.9-4.6c-4.3-1.8-4.6-4.5-7.4-7.3c-3.3-3.2-9.1-5-12.1-8.4
		c-0.3-0.3-1.1-1.9-1.8-3.7c-0.6-2-0.8-4.3-1.4-6.3c0,0,0,0,0.1-0.1C1903.2,428.3,1904.5,435.8,1905.1,436.7z"/>
</g>
<path class="st3" d="M2024.7,705c0,0,9.5-91.6-4.7-164.2c0,0-12.6-116.8,0-124.7c0,0,17.4-60,31.6-63.2c0,0,18.9-45.8,25.3-75.8
	c0,0,9.5-28.4,25.3-61.6c0,0,33.2-52.1,44.2-52.1l-36.3-15.8c0,0-25.3,28.4-33.2,45.8c0,0-23.7,55.3-42.6,82.1
	c0,0-28.5,132.6-53.8,161c0,0-34.6-173.6-45.7-197.3c0,0-28.4-39.5-42.6-52.1c0,0-17.4-30-31.6-48.9l-20.5,36.3
	c0,0,26.8,44.2,39.5,50.5c0,0,38.5,98.6,38.5,116c0,0,30.9,49.8,24.6,75.1c0,0-3.2,83.7,3.2,124.7c0,0,4,69.8-4.7,102.6
	c0,0-13.3,43.3-11.1,52.1S2024.7,705,2024.7,705z"/>
<path class="st17" d="M2100.6,285.9"/>
<path class="st21" d="M2088.8,324.9c0,0,3.1-2,5.1-0.5"/>
<path class="st21" d="M2116.5,304.5c0,0,3.1-1.7,2.8-4"/>
<path class="st21" d="M2004.5,242.7c0,0,0.7-5.4-2.5-7.2"/>
<path class="st21" d="M1934.3,125.1c0,0-0.7-3.3-3-3.7"/>
<g>
	<g>
		<path class="st3" d="M2133.3,351.3c0,0-2.2-3.1-7.3-4.1s-15.5,0.7-25.2-3.4s-10.7-12.7-10.3-15.7c0.4-2.9,3.6-3.8,3.6-3.8
			s-1.6-4.8,5.9-5.8C2126.7,319,2133.3,351.3,2133.3,351.3z"/>
		<path class="st18" d="M2100.8,343.9c8.8,3.7,18,2.6,23.5,3.1c-5.2-1.3-15.2-0.6-24-5.5c-8-4.4-9.2-11.8-8.9-15.5
			c-0.5,0.5-0.9,1.2-1,2.1C2090.1,331.1,2091.1,339.8,2100.8,343.9z"/>
		<path class="st19" d="M2098.1,321.3c24.2-1.1,33.5,24.9,35.1,29.8c0.1,0.1,0.1,0.2,0.1,0.2s-6.8-34.3-33.4-32.7
			c-3.1,0.4-4.6,1.5-5.4,2.6c0,0.2,0.1,0.4,0.1,0.6C2095.8,321.7,2097,321.5,2098.1,321.3z"/>
	</g>
	<path class="st17" d="M2094.3,324.5c0,0,6.5,2.3,10.7,6.1"/>
	<g>
		<g>
			<path class="st3" d="M2093.3,324.7h0.1c0.2,0.6,1.2,0.3,1-0.3c-0.1-0.3-0.3-0.5-0.6-0.6C2093.2,323.6,2092.7,324.5,2093.3,324.7
				L2093.3,324.7z"/>
		</g>
	</g>
</g>
<path class="st22" d="M2106.9,225.9c0,0,1.7,0.4,1.8,1.6"/>
<g>
	<g>
		<path class="st3" d="M2112.2,249.4c0,0,0.3-1.7-1-3.8s-5.2-5-6.9-9.6s0.9-7.7,2-8.5s2.4,0,2.4,0s1.1-2.1,3.8,0.1
			C2121,236.8,2112.2,249.4,2112.2,249.4z"/>
		<path class="st18" d="M2104.3,236c1.6,4.1,4.9,6.9,6.5,9c-1.2-2.2-4.6-5.3-5.8-9.9c-1.1-4.1,1-6.9,2.4-8c-0.3,0-0.7,0.1-1,0.4
			C2105.2,228.3,2102.6,231.4,2104.3,236z"/>
		<path class="st19" d="M2111.1,227.9c8.1,7.8,2.3,19.3,1.1,21.4c0,0.1,0,0.1,0,0.1s9.4-13.3,0.4-21.7c-1.1-0.9-2-1.1-2.6-1
			c-0.1,0.1-0.1,0.2-0.2,0.2C2110.2,227.3,2110.7,227.6,2111.1,227.9z"/>
	</g>
	<path class="st17" d="M2108.8,227.6c0,0,1.3,2.9,1.4,5.6"/>
	<g>
		<g>
			<path class="st3" d="M2108.4,227.4C2108.4,227.4,2108.4,227.5,2108.4,227.4c-0.1,0.4,0.4,0.5,0.4,0.2c0-0.1,0-0.2,0-0.3
				C2108.8,227,2108.3,227.1,2108.4,227.4L2108.4,227.4z"/>
		</g>
	</g>
</g>
<path class="st23" d="M1926,455.7c0,0,1.2,3.5-0.7,5.1"/>
<g>
	<g>
		<path class="st3" d="M1889.7,492.7c0,0,3.5-1.4,5.7-6.2c2.2-4.7,3-15.2,9.2-23.7c6.3-8.5,14.9-7.4,17.7-6.4c2.8,1,2.8,4.4,2.8,4.4
			s5-0.4,4.2,7.1C1922.7,493.9,1889.7,492.7,1889.7,492.7z"/>
		<path class="st18" d="M1904.7,462.8c-5.6,7.6-6.8,16.9-8.6,22.1c2.5-4.8,4.2-14.6,11-22c6.1-6.7,13.6-6.1,17.1-5
			c-0.4-0.6-1-1.1-1.9-1.4C1919.6,455.4,1911,454.3,1904.7,462.8z"/>
		<path class="st19" d="M1927.2,465.6c-4.6,23.8-32.1,26.7-37.3,27c-0.1,0.1-0.2,0.1-0.2,0.1s34.9,1.5,39.7-24.8
			c0.3-3.1-0.3-4.8-1.2-5.8c-0.2,0-0.4,0-0.6-0.1C1927.4,463.2,1927.3,464.5,1927.2,465.6z"/>
	</g>
	<path class="st17" d="M1925.1,461.1c0,0-3.7,5.8-8.5,9"/>
</g>
<g>
	<g>
		<path class="st3" d="M2129.7,272.8c0,0-1.5,1.8-1.4,5.1c0.1,3.3,2.8,9.3,1.8,15.8s-6.1,8.4-7.9,8.6c-1.8,0.2-2.8-1.6-2.8-1.6
			s-2.7,1.7-4.4-2.7C2111.1,281.7,2129.7,272.8,2129.7,272.8z"/>
		<path class="st20" d="M2130.1,293.7c0.9-5.9-1.1-11.3-1.6-14.7c0,3.4,1.9,9.3,0.3,15.4c-1.5,5.5-5.7,7.3-8,7.7
			c0.4,0.2,0.9,0.3,1.4,0.3C2124,302.1,2129,300.2,2130.1,293.7z"/>
		<path class="st19" d="M2116.8,298.7c-4.3-14.5,10-24.1,12.8-25.7c0.1-0.1,0.1-0.1,0.1-0.1s-19.8,9.3-14.8,25.2
			c0.7,1.8,1.6,2.6,2.4,2.9c0.1,0,0.2-0.1,0.4-0.1C2117.4,300.1,2117.1,299.3,2116.8,298.7z"/>
	</g>
	<path class="st20" d="M2119.3,300.7c0,0,4.4-3.2,3.4-6.3"/>
</g>
<g>
	<g>
		<path class="st3" d="M564.1,559.2c7.8-1.8,15.9-2.5,23.5-4.9c10-3.1,15.4-12.1,23.5-17.8c4.2-2.8,7.3-4.3,10.3-8.4
			c1-1.3,2.8-12.6,6.1-11.1c0,0,0,0,0.2,0.1c0.2-0.7,0.4-1.3,0.7-2.1c2.2-5.4,5.4-13,10.2-17.1c12-10,30.7-5.2,45-9.3
			c-7.3-1.9-18.9-0.1-27-0.4c-6.4-0.1-15.6,1-19.9,5.8c-3.6,4-7,9.4-9.6,14.2c-2.4,4.3-6.6,10.9-4.8,15.9c-0.6,0.3-1.2,0.7-1.9,1
			c0.3-0.1,0.4-0.1,0.7-0.3c-9.4,5.1-24.9,13.6-29.5,22.8c-10.2,2.2-20.7,3.4-31.2,5.2l1.3,6.9C562.4,559.5,563.3,559.3,564.1,559.2
			z"/>
		<path class="st3" d="M621.5,528c-3,4-6.1,5.4-10.3,8.4c-8.1,5.7-13.5,14.7-23.5,17.8c-7.6,2.4-15.7,3.1-23.5,4.9
			c-0.7,0.1-1.5,0.3-2.2,0.4l0.4,2.7c10.6-1.6,21.6-2.8,31.3-6.9c6.4-2.7,6.9-6.7,11.1-10.9c4.9-4.8,13.6-7.5,18.1-12.6
			c0.4-0.4,1.6-2.8,2.7-5.5c0.9-3,1.2-6.4,2.1-9.4c0,0,0,0-0.2-0.1C624.3,515.4,622.5,526.6,621.5,528z"/>
	</g>
	<path class="st17" d="M643.1,460.8"/>
	<path class="st24" d="M625.4,519.3c0,0,4.6-3,7.6-0.7"/>
	<path class="st24" d="M666.9,488.7c0,0,4.6-2.5,4.2-6"/>
	<g>
		<g>
			<path class="st3" d="M692.1,558.9c0,0-3.3-4.6-10.9-6.1c-7.6-1.5-23.2,1-37.8-5.1c-14.5-6.1-16-19-15.4-23.5
				c0.6-4.3,5.4-5.7,5.4-5.7s-2.4-7.2,8.8-8.7C682.2,510.4,692.1,558.9,692.1,558.9z"/>
			<path class="st18" d="M643.4,547.8c13.2,5.5,27,3.9,35.2,4.6c-7.8-1.9-22.8-0.9-36-8.2c-12-6.6-13.8-17.7-13.3-23.2
				c-0.7,0.7-1.3,1.8-1.5,3.1C627.3,528.6,628.8,541.6,643.4,547.8z"/>
			<path class="st19" d="M639.3,513.9c36.3-1.6,50.2,37.3,52.6,44.7c0.2,0.1,0.2,0.3,0.2,0.3s-10.2-51.4-50.1-49
				c-4.6,0.6-6.9,2.2-8.1,3.9c0,0.3,0.2,0.6,0.2,0.9C635.9,514.5,637.7,514.2,639.3,513.9z"/>
		</g>
		<path class="st17" d="M633.6,518.7c0,0,9.7,3.4,16,9.1"/>
		<g>
			<g>
				<path class="st3" d="M632.1,519h0.2c0.3,0.9,1.8,0.4,1.5-0.4c-0.2-0.4-0.4-0.7-0.9-0.9C632,517.3,631.2,518.7,632.1,519
					L632.1,519z"/>
			</g>
		</g>
	</g>
	<g>
		<g>
			<path class="st3" d="M686.7,441.2c0,0-2.2,2.7-2.1,7.6c0.2,4.9,4.2,13.9,2.7,23.7c-1.5,9.7-9.1,12.6-11.8,12.9
				c-2.7,0.3-4.2-2.4-4.2-2.4s-4,2.5-6.6-4C658.8,454.5,686.7,441.2,686.7,441.2z"/>
			<path class="st20" d="M687.3,472.5c1.3-8.8-1.6-16.9-2.4-22c0,5.1,2.8,13.9,0.4,23.1c-2.2,8.2-8.5,10.9-12,11.5
				c0.6,0.3,1.3,0.4,2.1,0.4C678.2,485.1,685.6,482.3,687.3,472.5z"/>
			<path class="st19" d="M667.4,480c-6.4-21.7,15-36.1,19.2-38.5c0.2-0.1,0.2-0.1,0.2-0.1s-29.7,13.9-22.2,37.8
				c1,2.7,2.4,3.9,3.6,4.3c0.2,0,0.3-0.1,0.6-0.1C668.3,482.1,667.8,480.9,667.4,480z"/>
		</g>
		<path class="st20" d="M671.1,483c0,0,6.6-4.8,5.1-9.4"/>
	</g>
</g>
<g>
	<path class="st3" d="M1448.9,202.5c5.2-1.2,10.6-1.7,15.7-3.3c6.7-2.1,10.3-8.1,15.7-11.9c2.8-1.9,4.9-2.9,6.9-5.6
		c0.7-0.9,1.9-8.4,4.1-7.4c0,0,0,0,0.1,0.1c0.1-0.5,0.3-0.9,0.5-1.4c1.5-3.6,3.6-8.7,6.8-11.4c8-6.7,20.5-3.5,30-6.2
		c-4.9-1.3-12.6-0.1-18-0.3c-4.3-0.1-10.4,0.7-13.3,3.9c-2.4,2.7-4.7,6.3-6.4,9.5c-1.6,2.9-4.4,7.3-3.2,10.6
		c-0.4,0.2-0.8,0.5-1.3,0.7c0.2-0.1,0.3-0.1,0.5-0.2c-6.3,3.4-16.6,9.1-19.7,15.2c-6.8,1.5-13.8,2.3-20.8,3.5l0.9,4.6
		C1447.8,202.7,1448.4,202.6,1448.9,202.5z"/>
	<path class="st3" d="M1487.2,181.7c-2,2.7-4.1,3.6-6.9,5.6c-5.4,3.8-9,9.8-15.7,11.9c-5.1,1.6-10.5,2.1-15.7,3.3
		c-0.5,0.1-1,0.2-1.5,0.3l0.3,1.8c7.1-1.1,14.4-1.9,20.9-4.6c4.3-1.8,4.6-4.5,7.4-7.3c3.3-3.2,9.1-5,12.1-8.4
		c0.3-0.3,1.1-1.9,1.8-3.7c0.6-2,0.8-4.3,1.4-6.3c0,0,0,0-0.1-0.1C1489.1,173.3,1487.9,180.8,1487.2,181.7z"/>
</g>
<path class="st17" d="M1501.6,136.9"/>
<path class="st21" d="M1517.5,155.5c0,0,3.1-1.7,2.8-4"/>
<g>
	<g>
		<path class="st3" d="M1534.3,202.3c0,0-2.2-3.1-7.3-4.1s-15.5,0.7-25.2-3.4s-10.7-12.7-10.3-15.7c0.4-2.9,3.6-3.8,3.6-3.8
			s-1.6-4.8,5.9-5.8C1527.7,170,1534.3,202.3,1534.3,202.3z"/>
		<path class="st18" d="M1501.8,194.9c8.8,3.7,18,2.6,23.5,3.1c-5.2-1.3-15.2-0.6-24-5.5c-8-4.4-9.2-11.8-8.9-15.5
			c-0.5,0.5-0.9,1.2-1,2.1C1491.1,182.1,1492.1,190.8,1501.8,194.9z"/>
		<path class="st19" d="M1499.1,172.3c24.2-1.1,33.5,24.9,35.1,29.8c0.1,0.1,0.1,0.2,0.1,0.2s-6.8-34.3-33.4-32.7
			c-3.1,0.4-4.6,1.5-5.4,2.6c0,0.2,0.1,0.4,0.1,0.6C1496.8,172.7,1498,172.5,1499.1,172.3z"/>
	</g>
	<path class="st17" d="M1495.3,175.5c0,0,6.5,2.3,10.7,6.1"/>
	<g>
		<g>
			<path class="st3" d="M1494.3,175.7h0.1c0.2,0.6,1.2,0.3,1-0.3c-0.1-0.3-0.3-0.5-0.6-0.6C1494.2,174.6,1493.7,175.5,1494.3,175.7
				L1494.3,175.7z"/>
		</g>
	</g>
</g>
<g>
	<g>
		<path class="st3" d="M1530.7,123.8c0,0-1.5,1.8-1.4,5.1c0.1,3.3,2.8,9.3,1.8,15.8s-6.1,8.4-7.9,8.6c-1.8,0.2-2.8-1.6-2.8-1.6
			s-2.7,1.7-4.4-2.7C1512.1,132.7,1530.7,123.8,1530.7,123.8z"/>
		<path class="st20" d="M1531.1,144.7c0.9-5.9-1.1-11.3-1.6-14.7c0,3.4,1.9,9.3,0.3,15.4c-1.5,5.5-5.7,7.3-8,7.7
			c0.4,0.2,0.9,0.3,1.4,0.3C1525,153.1,1530,151.2,1531.1,144.7z"/>
		<path class="st19" d="M1517.8,149.7c-4.3-14.5,10-24.1,12.8-25.7c0.1-0.1,0.1-0.1,0.1-0.1s-19.8,9.3-14.8,25.2
			c0.7,1.8,1.6,2.6,2.4,2.9c0.1,0,0.2-0.1,0.4-0.1C1518.4,151.1,1518.1,150.3,1517.8,149.7z"/>
	</g>
	<path class="st20" d="M1520.3,151.7c0,0,4.4-3.2,3.4-6.3"/>
</g>
<path class="st25" d="M1865.4,409.3c0,0-1.9-5.1-5.6-5.2"/>
<g>
	<g>
		<path class="st3" d="M1819.7,382.3c0,0,2.5,2.7,7.5,3.2s14.8-2.3,24.6,0.7c9.8,3,11.6,11.2,11.5,14c-0.1,2.9-3.1,4-3.1,4
			s2,4.4-5.1,6.2C1829.4,412.7,1819.7,382.3,1819.7,382.3z"/>
		<path class="st20" d="M1851.8,386.2c-8.8-2.7-17.6-0.7-22.9-0.7c5.1,0.7,14.6-0.9,23.6,2.9c8.1,3.4,10,10.4,10.1,14
			c0.4-0.6,0.7-1.3,0.7-2.2C1863.4,397.4,1861.6,389.2,1851.8,386.2z"/>
		<path class="st19" d="M1856.6,407.6c-23.2,3.5-34.8-20.6-36.7-25.2c-0.1-0.1-0.1-0.1-0.1-0.1s10,32.3,35.5,28.1
			c2.9-0.7,4.3-1.9,4.9-3c0-0.2-0.1-0.4-0.1-0.6C1858.8,407.1,1857.6,407.3,1856.6,407.6z"/>
	</g>
	<path class="st20" d="M1860.3,404.2c0,0-4-7.4-8.9-6.6"/>
</g>
<path class="st26" d="M1897.3,418.4c0,0,3.5,0.6,4.7-1.5"/>
<g>
	<g>
		<path class="st3" d="M1924.7,403.7c0,0-2.1,0.5-3.8,2.8c-1.7,2.4-3.1,8.1-7.4,12.2s-8.9,2.6-10.4,1.8c-1.4-0.8-1.1-2.7-1.1-2.7
			s-2.8-0.3-1.6-4.3C1906.6,399.8,1924.7,403.7,1924.7,403.7z"/>
		<path class="st20" d="M1913.5,418.7c3.9-3.7,5.4-8.6,6.9-11.3c-1.9,2.4-3.7,7.6-8.2,11.1c-4.1,3.1-8.1,2-9.9,1.1
			c0.2,0.4,0.4,0.7,0.9,1C1904.6,421.3,1909.2,422.8,1913.5,418.7z"/>
		<path class="st19" d="M1901.4,415c4.9-12.7,20.3-11.6,23.2-11.2c0.1,0,0.1,0,0.1,0s-19.1-4.3-24.3,9.8c-0.5,1.7-0.3,2.7,0.1,3.3
			c0.1,0,0.2,0.1,0.3,0.1C1901,416.3,1901.2,415.6,1901.4,415z"/>
	</g>
	<path class="st20" d="M1902,417.8c0,0,4.9,0.1,5.9-2.6"/>
</g>
<path class="st21" d="M1808.5,260.9c0,0-5.6-7.9-12-6.3"/>
<g>
	<g>
		<path class="st3" d="M1730.3,238.7c0,0,4.9,3.2,12.8,1.8c7.9-1.3,21.9-9.6,38.2-9.1c16.3,0.5,22.5,12.4,23.6,16.8
			c1.1,4.4-3.1,7.4-3.1,7.4s4.9,6-5.3,11.6C1757.8,281.6,1730.3,238.7,1730.3,238.7z"/>
		<path class="st20" d="M1781.3,231.4c-14.6-0.5-27.4,6.2-35.6,8.5c8.2-1,22.2-7.5,37.6-5.4c13.9,1.9,19.7,11.9,21.4,17.4
			c0.4-1,0.6-2.3,0.2-3.6C1803.8,243.9,1797.6,232,1781.3,231.4z"/>
		<path class="st19" d="M1797.6,262.5c-34.3,15-62.1-17.3-67-23.6c-0.2-0.1-0.3-0.2-0.3-0.2s28.8,45.6,66.2,28.6
			c4.2-2.3,5.8-4.7,6.3-6.7c-0.2-0.3-0.3-0.6-0.5-0.8C1800.8,260.6,1799.1,261.5,1797.6,262.5z"/>
	</g>
	<path class="st20" d="M1799.7,254.9c0,0-9.2-9.7-16.4-6.5"/>
</g>
<path class="st21" d="M2138.5,210.2c0,0,3.9-0.5,3.7-3.2"/>
<g>
	<g>
		<path class="st3" d="M2162.2,170.1c0,0-2.5,2.3-2.9,6.9c-0.4,4.6,2.1,13.6-0.6,22.6c-2.7,9-10.2,10.7-12.8,10.6
			c-2.6,0-3.6-2.8-3.6-2.8s-4.1,1.9-5.7-4.6C2134.4,179.1,2162.2,170.1,2162.2,170.1z"/>
		<path class="st20" d="M2158.8,199.6c2.4-8.1,0.6-16.1,0.5-21c-0.7,4.7,0.9,13.4-2.6,21.7c-3.1,7.5-9.5,9.2-12.8,9.3
			c0.5,0.4,1.2,0.6,2,0.6C2148.5,210.2,2156.1,208.5,2158.8,199.6z"/>
		<path class="st19" d="M2139.1,204c-3.3-21.3,18.8-31.9,23-33.8c0.1-0.1,0.1-0.1,0.1-0.1s-29.6,9.2-25.6,32.6
			c0.7,2.7,1.7,3.9,2.8,4.5c0.2,0,0.4-0.1,0.5-0.1C2139.7,206.1,2139.4,205,2139.1,204z"/>
	</g>
	<path class="st20" d="M2143.2,206.1c0,0,6.8-3.7,6-8.2"/>
</g>
<g>
	<g>
		<path class="st3" d="M1980.2,211.9c0,0,1.1,2.6,4.5,4.2c3.5,1.6,11.2,2.2,17.4,6.8c6.2,4.6,5.4,11,4.6,13s-3.2,2.1-3.2,2.1
			s0.3,3.7-5.2,3.1C1979.3,236.2,1980.2,211.9,1980.2,211.9z"/>
		<path class="st18" d="M2002.2,222.9c-5.6-4.2-12.4-5.1-16.3-6.4c3.5,1.9,10.7,3.1,16.2,8.1c4.9,4.5,4.5,10,3.6,12.6
			c0.4-0.3,0.8-0.7,1.1-1.4C2007.6,233.9,2008.4,227.6,2002.2,222.9z"/>
		<path class="st19" d="M2000.1,239.5c-17.5-3.5-19.6-23.7-19.8-27.5c0-0.1-0.1-0.1-0.1-0.1s-1.2,25.7,18.1,29.2
			c2.3,0.2,3.5-0.2,4.3-0.9c0-0.1,0-0.3,0-0.5C2001.8,239.7,2000.9,239.6,2000.1,239.5z"/>
	</g>
	<path class="st19" d="M2003.1,237.4c0,0-2.6-5.5-7.6-6.3"/>
</g>
<path class="st27" d="M1892.7,151.3c0,0,0.8-5.4-2.5-7.2"/>
<g>
	<g>
		<path class="st3" d="M1853,102.5c0,0,1.7,4.1,7.2,6.7s17.9,3.5,27.8,10.9c10,7.4,8.6,17.5,7.4,20.8c-1.2,3.2-5.1,3.3-5.1,3.3
			s0.5,5.9-8.3,5C1851.5,141.3,1853,102.5,1853,102.5z"/>
		<path class="st18" d="M1888.1,120.2c-9-6.7-19.8-8.1-26-10.2c5.6,3,17.1,5,25.8,13c7.9,7.2,7.2,16,5.8,20.2
			c0.7-0.5,1.3-1.2,1.7-2.2C1896.7,137.7,1898,127.6,1888.1,120.2z"/>
		<path class="st19" d="M1884.8,146.7c-28-5.5-31.3-37.9-31.7-43.9c-0.1-0.1-0.1-0.2-0.1-0.2s-1.9,41.1,29,46.7
			c3.6,0.4,5.7-0.4,6.8-1.4c0-0.2,0.1-0.5,0.1-0.7C1887.5,146.9,1886.1,146.7,1884.8,146.7z"/>
	</g>
	<path class="st19" d="M1889.4,143.2c0,0-4.2-8.8-12.1-10"/>
</g>
<g>
	<g>
		<path class="st3" d="M1953.5,156.1c0,0-2.3-1.8-2.9-5.8c-0.6-3.9,1.1-11.8-1.7-19.4c-2.8-7.6-9.4-8.6-11.6-8.4
			c-2.3,0.2-3,2.6-3,2.6s-3.6-1.4-4.6,4.3C1929,149.9,1953.5,156.1,1953.5,156.1z"/>
		<path class="st19" d="M1948.9,130.9c2.5,6.8,1.4,13.9,1.6,18.1c-0.8-4,0.1-11.6-3.4-18.5c-3.1-6.2-8.7-7.4-11.5-7.3
			c0.4-0.3,1-0.6,1.7-0.7C1939.6,122.3,1946.1,123.4,1948.9,130.9z"/>
		<path class="st20" d="M1931.8,128.1c-1.7,18.5,17.9,26.5,21.6,27.8c0.1,0.1,0.1,0.1,0.1,0.1s-26-6.4-23.8-26.7
			c0.4-2.3,1.3-3.5,2.1-4c0.2,0,0.3,0.1,0.5,0.1C1932.2,126.4,1932,127.3,1931.8,128.1z"/>
	</g>
	<path class="st18" d="M1934.5,125.5c0,0,1.8,7.7,4.6,10.2"/>
</g>
<g>
	<path class="st3" d="M2028.2,695.4c-14,0.6-28,1.3-42,1.9"/>
	<g>
		<path class="st3" d="M2028.2,694.9c-14,0.6-28,1.3-42,1.9c-0.6,0-0.6,1,0,1c14-0.6,28-1.3,42-1.9
			C2028.8,695.9,2028.8,694.9,2028.2,694.9L2028.2,694.9z"/>
	</g>
</g>
<g>
	<path class="st3" d="M2038.2,697c-24.3-5.1-49.5-5.8-74-1.9"/>
	<g>
		<path class="st3" d="M2038.3,696.5c-24.4-5.1-49.6-5.8-74.3-1.9c-0.6,0.1-0.4,1.1,0.3,1c24.5-3.8,49.5-3.1,73.7,1.9
			C2038.6,697.6,2038.9,696.6,2038.3,696.5L2038.3,696.5z"/>
	</g>
</g>
<g>
	<path class="st3" d="M1956.1,697.5c33.4,5.8,66.7,11.7,100.1,17.5"/>
	<g>
		<path class="st3" d="M1955.9,698c33.4,5.8,66.7,11.7,100.1,17.5c0.6,0.1,0.9-0.9,0.3-1c-33.4-5.8-66.7-11.7-100.1-17.5
			C1955.6,696.9,1955.3,697.9,1955.9,698L1955.9,698z"/>
	</g>
</g>
<text transform="matrix(1 0 0 1 1041.072 1282.3147)" class="st3" style="font-family:'SegoeUI-Semilight'; font-size:974.3518px;">O</text>
<text transform="matrix(1 0 0 1 472.4493 1781.2966)" class="st3 st28 st29">O</text>
<text transform="matrix(1 0 0 1 1475.963 -465.7904)" class="st3 st29" style="font-family:'PerpetuaTitlingMT-Light';">O</text>
</svg>
